<svg width="2043" height="2693" viewBox="0 0 2043 2693" fill="none" xmlns="http://www.w3.org/2000/svg">
<path d="M677.739 1.93358C1102.96 0.474455 1957.67 -1.56832 1974.74 1.93358C2029.35 1.93358 2037.31 57.3805 2034.47 85.1039L2043 2282.55C2043 2401.61 1966.2 2422.62 1927.81 2418.25C1445.7 2421.16 873.142 2427 750.268 2427C627.395 2427 602.365 2327.78 605.209 2278.17C608.053 1558.82 613.742 110.493 613.742 71.9718C613.742 33.4509 656.407 9.22928 677.739 1.93358Z" fill="url(#paint0_linear)"/>
<path d="M1922.07 63.2342C1975.47 63.2342 1984.77 104.083 1982.75 124.507V1850.36C1982.75 1870.79 1972.64 1879.3 1958.48 1881H708.541C669.708 1881 660 1846.96 660 1829.94V109.189C660 68.3403 696.406 61.5322 714.609 63.2342H1922.07Z" fill="#270051"/>
<path d="M1692.53 386.081H1848.2C1848.2 386.081 1854.97 364.512 1854.97 289.02C1854.97 213.529 1848.2 191.959 1848.2 191.959H1692.53C1692.53 191.959 1685.76 213.529 1685.76 289.02C1685.76 364.512 1692.53 386.081 1692.53 386.081Z" fill="url(#paint1_linear)"/>
<path d="M1854.97 206.339V184.77H1685.76V206.339H1854.97Z" fill="#80FC06"/>
<path d="M1854.97 393.271V371.702H1685.76V393.271H1854.97Z" fill="#80FC06"/>
<ellipse rx="43.9942" ry="46.7331" transform="matrix(-1 0 0 1 1770.36 289.02)" fill="#79FF00"/>
<path d="M1802 277.912C1817.16 277.912 1829.29 295.687 1829.29 295.687L1822.55 302.005C1822.55 302.005 1813.09 289.637 1802 288.513C1790.91 287.388 1776.53 303.13 1752.55 309.876C1728.58 316.622 1709.4 281.766 1709.4 281.766L1717.11 274.357C1717.11 274.357 1735.3 302.796 1753.49 295.687C1771.68 288.577 1786.84 277.912 1802 277.912Z" fill="white"/>
<path d="M1510.57 386.98H1666.24C1666.24 386.98 1673.01 365.411 1673.01 289.919C1673.01 214.428 1666.24 192.858 1666.24 192.858H1510.57C1510.57 192.858 1503.8 214.428 1503.8 289.919C1503.8 365.411 1510.57 386.98 1510.57 386.98Z" fill="url(#paint2_linear)"/>
<path d="M1673.01 207.238V185.669H1503.8V207.238H1673.01Z" fill="#80FC06"/>
<path d="M1673.01 394.17V372.601H1503.8V394.17H1673.01Z" fill="#80FC06"/>
<ellipse rx="43.9942" ry="46.7331" transform="matrix(-1 0 0 1 1588.4 289.919)" fill="#79FF00"/>
<path d="M1620.04 278.812C1635.2 278.812 1647.33 296.586 1647.33 296.586L1640.59 302.905C1640.59 302.905 1631.13 290.536 1620.04 289.412C1608.95 288.288 1594.57 304.029 1570.59 310.775C1546.62 317.522 1527.44 282.666 1527.44 282.666L1535.16 275.257C1535.16 275.257 1553.35 303.696 1571.54 296.586C1589.73 289.476 1604.88 278.812 1620.04 278.812Z" fill="white"/>
<path d="M1328.61 387.881H1484.28C1484.28 387.881 1491.05 366.312 1491.05 290.82C1491.05 215.328 1484.28 193.759 1484.28 193.759H1328.61C1328.61 193.759 1321.84 215.328 1321.84 290.82C1321.84 366.312 1328.61 387.881 1328.61 387.881Z" fill="url(#paint3_linear)"/>
<path d="M1491.05 208.137V186.568H1321.84V208.137H1491.05Z" fill="#80FC06"/>
<path d="M1491.05 395.071V373.501H1321.84V395.071H1491.05Z" fill="#80FC06"/>
<ellipse rx="43.9942" ry="46.7331" transform="matrix(-1 0 0 1 1406.45 290.821)" fill="#79FF00"/>
<path d="M1438.09 279.712C1453.25 279.712 1465.37 297.486 1465.37 297.486L1458.64 303.805C1458.64 303.805 1449.18 291.437 1438.09 290.312C1427 289.188 1412.61 304.929 1388.64 311.676C1364.67 318.422 1345.49 283.566 1345.49 283.566L1353.2 276.157C1353.2 276.157 1371.39 304.596 1389.58 297.486C1407.77 290.377 1422.93 279.712 1438.09 279.712Z" fill="white"/>
<path d="M1146.65 388.78H1302.32C1302.32 388.78 1309.09 367.211 1309.09 291.719C1309.09 216.227 1302.32 194.658 1302.32 194.658H1146.65C1146.65 194.658 1139.88 216.227 1139.88 291.719C1139.88 367.211 1146.65 388.78 1146.65 388.78Z" fill="url(#paint4_linear)"/>
<path d="M1309.09 209.037V187.468H1139.88V209.037H1309.09Z" fill="#80FC06"/>
<path d="M1309.09 395.97V374.401H1139.88V395.97H1309.09Z" fill="#80FC06"/>
<ellipse rx="43.9942" ry="46.7331" transform="matrix(-1 0 0 1 1224.49 291.719)" fill="#79FF00"/>
<path d="M1256.13 280.612C1271.28 280.612 1283.41 298.386 1283.41 298.386L1276.68 304.705C1276.68 304.705 1267.22 292.337 1256.13 291.212C1245.03 290.088 1230.65 305.829 1206.68 312.576C1182.7 319.322 1163.53 284.466 1163.53 284.466L1171.24 277.057C1171.24 277.057 1189.43 305.496 1207.62 298.386C1225.81 291.277 1240.97 280.612 1256.13 280.612Z" fill="white"/>
<path d="M964.691 389.678H1120.36C1120.36 389.678 1127.13 368.109 1127.13 292.617C1127.13 217.125 1120.36 195.556 1120.36 195.556H964.691C964.691 195.556 957.923 217.125 957.923 292.617C957.923 368.109 964.691 389.678 964.691 389.678Z" fill="url(#paint5_linear)"/>
<path d="M1127.13 209.936V188.367H957.925V209.936H1127.13Z" fill="#80FC06"/>
<path d="M1127.13 396.868V375.299H957.923V396.868H1127.13Z" fill="#80FC06"/>
<ellipse rx="43.9942" ry="46.7331" transform="matrix(-1 0 0 1 1042.53 292.618)" fill="#79FF00"/>
<path d="M1074.17 281.51C1089.32 281.51 1101.45 299.284 1101.45 299.284L1094.72 305.603C1094.72 305.603 1085.26 293.235 1074.17 292.11C1063.07 290.986 1048.69 306.727 1024.72 313.474C1000.74 320.22 981.566 285.364 981.566 285.364L989.279 277.955C989.279 277.955 1007.47 306.394 1025.66 299.284C1043.85 292.174 1059.01 281.51 1074.17 281.51Z" fill="white"/>
<path d="M782.736 390.579H938.407C938.407 390.579 945.176 369.009 945.176 293.518C945.176 218.026 938.407 196.457 938.407 196.457H782.736C782.736 196.457 775.967 218.026 775.967 293.518C775.967 369.009 782.736 390.579 782.736 390.579Z" fill="url(#paint6_linear)"/>
<path d="M945.177 210.836V189.267H775.968V210.836H945.177Z" fill="#80FC06"/>
<path d="M945.176 397.768V376.199H775.967V397.768H945.176Z" fill="#80FC06"/>
<ellipse rx="43.9942" ry="46.7331" transform="matrix(-1 0 0 1 860.572 293.518)" fill="#79FF00"/>
<path d="M892.21 282.409C907.369 282.409 919.496 300.184 919.496 300.184L912.762 306.502C912.762 306.502 903.302 294.134 892.21 293.01C881.118 291.885 866.735 307.627 842.762 314.373C818.789 321.119 799.611 286.263 799.611 286.263L807.323 278.854C807.323 278.854 825.513 307.293 843.703 300.184C861.893 293.074 877.052 282.409 892.21 282.409Z" fill="white"/>
<path d="M706.617 393.271H1928.03C1928.03 393.271 1940.31 397.804 1940.31 406.869C1940.31 415.935 1928.03 420.467 1928.03 420.467H706.617C706.617 420.467 694.342 415.935 694.342 406.869C694.342 397.804 706.617 393.271 706.617 393.271Z" fill="#B904A9"/>
<path d="M1773.91 320.749C1837.91 320.749 1846.43 397.158 1846.43 397.158H1835.71C1835.71 397.158 1831.99 331.209 1773.91 331.209C1715.82 331.209 1707.26 398.295 1707.26 398.295H1696.56C1696.56 398.295 1709.9 320.749 1773.91 320.749Z" fill="#B904A9"/>
<path d="M1589.78 320.749C1653.78 320.749 1662.3 397.158 1662.3 397.158H1651.58C1651.58 397.158 1647.86 331.209 1589.78 331.209C1531.7 331.209 1523.13 398.295 1523.13 398.295H1512.43C1512.43 398.295 1525.77 320.749 1589.78 320.749Z" fill="#B904A9"/>
<path d="M1405.65 320.749C1469.66 320.749 1478.18 397.158 1478.18 397.158H1467.45C1467.45 397.158 1463.74 331.209 1405.65 331.209C1347.57 331.209 1339.01 398.295 1339.01 398.295H1328.3C1328.3 398.295 1341.65 320.749 1405.65 320.749Z" fill="#B904A9"/>
<path d="M1221.52 320.749C1285.53 320.749 1294.05 397.158 1294.05 397.158H1283.33C1283.33 397.158 1279.61 331.209 1221.52 331.209C1163.44 331.209 1154.88 398.295 1154.88 398.295H1144.17C1144.17 398.295 1157.52 320.749 1221.52 320.749Z" fill="#B904A9"/>
<path d="M1037.4 320.749C1101.4 320.749 1109.92 397.158 1109.92 397.158H1099.2C1099.2 397.158 1095.48 331.209 1037.4 331.209C979.312 331.209 970.749 398.295 970.749 398.295H960.045C960.045 398.295 973.391 320.749 1037.4 320.749Z" fill="#B904A9"/>
<path d="M853.268 320.749C917.273 320.749 925.792 397.158 925.792 397.158H915.069C915.069 397.158 911.351 331.209 853.268 331.209C795.184 331.209 786.621 398.295 786.621 398.295H775.917C775.917 398.295 789.263 320.749 853.268 320.749Z" fill="#B904A9"/>
<path d="M1886.54 2523.94L1899.24 2427.38H1818.83L1831.53 2523.94H1886.54Z" fill="#450C8B"/>
<path d="M824.359 2527.96L832.822 2427.38H748.186L765.113 2527.96H824.359Z" fill="#450C8B"/>
<path d="M1692.53 1164.71H1848.2C1848.2 1164.71 1854.97 1143.15 1854.97 1067.65C1854.97 992.162 1848.2 970.593 1848.2 970.593H1692.53C1692.53 970.593 1685.76 992.162 1685.76 1067.65C1685.76 1143.15 1692.53 1164.71 1692.53 1164.71Z" fill="url(#paint7_linear)"/>
<path d="M1854.97 984.972V963.403H1685.76V984.972H1854.97Z" fill="#FF5C00"/>
<path d="M1854.97 1171.91V1150.34H1685.76V1171.91H1854.97Z" fill="#FF5C00"/>
<ellipse rx="43.9942" ry="46.7331" transform="matrix(-1 0 0 1 1770.36 1067.65)" fill="#FF6B00"/>
<path d="M1802 1056.55C1817.16 1056.55 1829.29 1074.32 1829.29 1074.32L1822.55 1080.64C1822.55 1080.64 1813.09 1068.27 1802 1067.15C1790.91 1066.02 1776.53 1081.76 1752.55 1088.51C1728.58 1095.26 1709.4 1060.4 1709.4 1060.4L1717.12 1052.99C1717.12 1052.99 1735.31 1081.43 1753.5 1074.32C1771.69 1067.21 1786.84 1056.55 1802 1056.55Z" fill="white"/>
<path d="M1510.57 1164.71H1666.24C1666.24 1164.71 1673.01 1143.15 1673.01 1067.65C1673.01 992.162 1666.24 970.593 1666.24 970.593H1510.57C1510.57 970.593 1503.8 992.162 1503.8 1067.65C1503.8 1143.15 1510.57 1164.71 1510.57 1164.71Z" fill="url(#paint8_linear)"/>
<path d="M1673.01 984.972V963.403H1503.8V984.972H1673.01Z" fill="#FF5C00"/>
<path d="M1673.01 1171.91V1150.34H1503.8V1171.91H1673.01Z" fill="#FF5C00"/>
<ellipse rx="43.9942" ry="46.7331" transform="matrix(-1 0 0 1 1588.4 1067.65)" fill="#FF6B00"/>
<path d="M1620.04 1056.55C1635.2 1056.55 1647.33 1074.32 1647.33 1074.32L1640.6 1080.64C1640.6 1080.64 1631.14 1068.27 1620.04 1067.15C1608.95 1066.02 1594.57 1081.76 1570.6 1088.51C1546.62 1095.26 1527.44 1060.4 1527.44 1060.4L1535.16 1052.99C1535.16 1052.99 1553.35 1081.43 1571.54 1074.32C1589.73 1067.21 1604.89 1056.55 1620.04 1056.55Z" fill="white"/>
<path d="M1328.61 1164.71H1484.28C1484.28 1164.71 1491.05 1143.15 1491.05 1067.65C1491.05 992.162 1484.28 970.593 1484.28 970.593H1328.61C1328.61 970.593 1321.84 992.162 1321.84 1067.65C1321.84 1143.15 1328.61 1164.71 1328.61 1164.71Z" fill="url(#paint9_linear)"/>
<path d="M1491.05 984.972V963.403H1321.84V984.972H1491.05Z" fill="#FF5C00"/>
<path d="M1491.05 1171.91V1150.34H1321.84V1171.91H1491.05Z" fill="#FF5C00"/>
<ellipse rx="43.9942" ry="46.7331" transform="matrix(-1 0 0 1 1406.45 1067.65)" fill="#FF6B00"/>
<path d="M1438.09 1056.55C1453.25 1056.55 1465.37 1074.32 1465.37 1074.32L1458.64 1080.64C1458.64 1080.64 1449.18 1068.27 1438.09 1067.15C1427 1066.02 1412.61 1081.76 1388.64 1088.51C1364.67 1095.26 1345.49 1060.4 1345.49 1060.4L1353.2 1052.99C1353.2 1052.99 1371.39 1081.43 1389.58 1074.32C1407.77 1067.21 1422.93 1056.55 1438.09 1056.55Z" fill="white"/>
<path d="M1146.66 1164.71H1302.33C1302.33 1164.71 1309.1 1143.15 1309.1 1067.65C1309.1 992.162 1302.33 970.593 1302.33 970.593H1146.66C1146.66 970.593 1139.89 992.162 1139.89 1067.65C1139.89 1143.15 1146.66 1164.71 1146.66 1164.71Z" fill="url(#paint10_linear)"/>
<path d="M1309.1 984.972V963.403H1139.89V984.972H1309.1Z" fill="#FF5C00"/>
<path d="M1309.1 1171.91V1150.34H1139.89V1171.91H1309.1Z" fill="#FF5C00"/>
<ellipse rx="43.9942" ry="46.7331" transform="matrix(-1 0 0 1 1224.49 1067.65)" fill="#FF6B00"/>
<path d="M1256.13 1056.55C1271.29 1056.55 1283.42 1074.32 1283.42 1074.32L1276.68 1080.64C1276.68 1080.64 1267.22 1068.27 1256.13 1067.15C1245.04 1066.02 1230.66 1081.76 1206.68 1088.51C1182.71 1095.26 1163.53 1060.4 1163.53 1060.4L1171.24 1052.99C1171.24 1052.99 1189.43 1081.43 1207.62 1074.32C1225.82 1067.21 1240.97 1056.55 1256.13 1056.55Z" fill="white"/>
<path d="M964.695 1164.71H1120.37C1120.37 1164.71 1127.14 1143.15 1127.14 1067.65C1127.14 992.162 1120.37 970.593 1120.37 970.593H964.695C964.695 970.593 957.927 992.162 957.927 1067.65C957.927 1143.15 964.695 1164.71 964.695 1164.71Z" fill="url(#paint11_linear)"/>
<path d="M1127.14 984.972V963.403H957.927V984.972H1127.14Z" fill="#FF5C00"/>
<path d="M1127.14 1171.91V1150.34H957.927V1171.91H1127.14Z" fill="#FF5C00"/>
<ellipse rx="43.9942" ry="46.7331" transform="matrix(-1 0 0 1 1042.53 1067.65)" fill="#FF6B00"/>
<path d="M1074.17 1056.55C1089.33 1056.55 1101.46 1074.32 1101.46 1074.32L1094.72 1080.64C1094.72 1080.64 1085.26 1068.27 1074.17 1067.15C1063.08 1066.02 1048.7 1081.76 1024.72 1088.51C1000.75 1095.26 981.571 1060.4 981.571 1060.4L989.283 1052.99C989.283 1052.99 1007.47 1081.43 1025.66 1074.32C1043.85 1067.21 1059.01 1056.55 1074.17 1056.55Z" fill="white"/>
<path d="M782.739 1164.71H938.411C938.411 1164.71 945.18 1143.15 945.18 1067.65C945.18 992.162 938.411 970.593 938.411 970.593H782.739C782.739 970.593 775.971 992.162 775.971 1067.65C775.971 1143.15 782.739 1164.71 782.739 1164.71Z" fill="url(#paint12_linear)"/>
<path d="M945.177 984.972V963.403H775.968V984.972H945.177Z" fill="#FF5C00"/>
<path d="M945.18 1171.91V1150.34H775.971V1171.91H945.18Z" fill="#FF5C00"/>
<ellipse rx="43.9942" ry="46.7331" transform="matrix(-1 0 0 1 860.576 1067.65)" fill="#FF6B00"/>
<path d="M892.214 1056.55C907.373 1056.55 919.5 1074.32 919.5 1074.32L912.766 1080.64C912.766 1080.64 903.306 1068.27 892.214 1067.15C881.122 1066.02 866.739 1081.76 842.766 1088.51C818.793 1095.26 799.615 1060.4 799.615 1060.4L807.327 1052.99C807.327 1052.99 825.517 1081.43 843.707 1074.32C861.897 1067.21 877.056 1056.55 892.214 1056.55Z" fill="white"/>
<path d="M1797.89 499.231V474.86H1736.71V499.231H1797.89Z" fill="#E52C87"/>
<path d="M1817.01 588.589L1790.24 499.231H1744.36L1717.59 588.589H1817.01Z" fill="white"/>
<path d="M1820.83 771.366V588.589H1713.77V775.428C1713.77 781.927 1721.42 786.259 1725.24 787.613H1805.54C1817.77 787.613 1820.83 776.782 1820.83 771.366Z" fill="#E52C87"/>
<path d="M1797.89 1272.03V1247.66H1736.71V1272.03H1797.89Z" fill="#62F900"/>
<path d="M1817.01 1361.39L1790.24 1272.03H1744.36L1717.59 1361.39H1817.01Z" fill="white"/>
<path d="M1820.83 1544.17V1361.39H1713.77V1548.23C1713.77 1554.73 1721.42 1559.06 1725.24 1560.41H1805.54C1817.77 1560.41 1820.83 1549.58 1820.83 1544.17Z" fill="#62F900"/>
<path d="M1617.96 1272.03V1247.66H1556.78V1272.03H1617.96Z" fill="#62F900"/>
<path d="M1637.08 1361.39L1610.31 1272.03H1564.43L1537.66 1361.39H1637.08Z" fill="white"/>
<path d="M1640.9 1544.17V1361.39H1533.84V1548.23C1533.84 1554.73 1541.48 1559.06 1545.31 1560.41H1625.61C1637.84 1560.41 1640.9 1549.58 1640.9 1544.17Z" fill="#62F900"/>
<path d="M1438.13 1272.03V1247.66H1376.95V1272.03H1438.13Z" fill="#62F900"/>
<path d="M1457.25 1361.39L1430.48 1272.03H1384.6L1357.83 1361.39H1457.25Z" fill="white"/>
<path d="M1461.07 1544.17V1361.39H1354.01V1548.23C1354.01 1554.73 1361.66 1559.06 1365.48 1560.41H1445.78C1458.01 1560.41 1461.07 1549.58 1461.07 1544.17Z" fill="#62F900"/>
<path d="M1258.3 1272.03V1247.66H1197.12V1272.03H1258.3Z" fill="#62F900"/>
<path d="M1277.42 1361.39L1250.66 1272.03H1204.77L1178.01 1361.39H1277.42Z" fill="white"/>
<path d="M1281.25 1544.17V1361.39H1174.18V1548.23C1174.18 1554.73 1181.83 1559.06 1185.65 1560.41H1265.95C1278.19 1560.41 1281.25 1549.58 1281.25 1544.17Z" fill="#62F900"/>
<path d="M1078.48 1272.03V1247.66H1017.3V1272.03H1078.48Z" fill="#62F900"/>
<path d="M1097.6 1361.39L1070.83 1272.03H1024.95L998.182 1361.39H1097.6Z" fill="white"/>
<path d="M1101.42 1544.17V1361.39H994.357V1548.23C994.357 1554.73 1002 1559.06 1005.83 1560.41H1086.12C1098.36 1560.41 1101.42 1549.58 1101.42 1544.17Z" fill="#62F900"/>
<path d="M898.649 1272.03V1247.66H837.47V1272.03H898.649Z" fill="#62F900"/>
<path d="M917.768 1361.39L891.002 1272.03H845.118L818.353 1361.39H917.768Z" fill="white"/>
<path d="M921.59 1544.17V1361.39H814.527V1548.23C814.527 1554.73 822.175 1559.06 825.998 1560.41H906.296C918.531 1560.41 921.59 1549.58 921.59 1544.17Z" fill="#62F900"/>
<path d="M1618.68 499.231V474.86H1557.5V499.231H1618.68Z" fill="#E52C87"/>
<path d="M1637.8 588.589L1611.03 499.231H1565.15L1538.38 588.589H1637.8Z" fill="white"/>
<path d="M1641.62 771.366V588.589H1534.56V775.428C1534.56 781.927 1542.2 786.259 1546.03 787.613H1626.33C1638.56 787.613 1641.62 776.782 1641.62 771.366Z" fill="#E52C87"/>
<path d="M1439.46 499.231V474.86H1378.28V499.231H1439.46Z" fill="#E52C87"/>
<path d="M1458.58 588.589L1431.82 499.231H1385.93L1359.17 588.589H1458.58Z" fill="white"/>
<path d="M1462.41 771.366V588.589H1355.34V775.428C1355.34 781.927 1362.99 786.259 1366.81 787.613H1447.11C1459.35 787.613 1462.41 776.782 1462.41 771.366Z" fill="#E52C87"/>
<path d="M1260.25 499.231V474.86H1199.07V499.231H1260.25Z" fill="#E52C87"/>
<path d="M1279.37 588.589L1252.6 499.231H1206.72L1179.95 588.589H1279.37Z" fill="white"/>
<path d="M1283.19 771.366V588.589H1176.13V775.428C1176.13 781.927 1183.77 786.259 1187.6 787.613H1267.9C1280.13 787.613 1283.19 776.782 1283.19 771.366Z" fill="#E52C87"/>
<path d="M1081.03 499.231V474.86H1019.86V499.231H1081.03Z" fill="#E52C87"/>
<path d="M1100.15 588.589L1073.39 499.231H1027.5L1000.74 588.589H1100.15Z" fill="white"/>
<path d="M1103.98 771.366V588.589H996.913V775.428C996.913 781.927 1004.56 786.259 1008.38 787.613H1088.68C1100.92 787.613 1103.98 776.782 1103.98 771.366Z" fill="#E52C87"/>
<path d="M899.161 499.231V474.86H837.982V499.231H899.161Z" fill="#E52C87" stroke="black"/>
<path d="M920.942 588.589L894.176 499.231H848.292L821.526 588.589H920.942Z" fill="white"/>
<path d="M924.764 771.366V588.589H817.701V775.428C817.701 781.927 825.349 786.259 829.172 787.613H909.469C921.705 787.613 924.764 776.782 924.764 771.366Z" fill="#E52C87"/>
<path d="M706.621 783.079H1928.03C1928.03 783.079 1940.31 787.612 1940.31 796.677C1940.31 805.742 1928.03 810.275 1928.03 810.275H706.621C706.621 810.275 694.346 805.742 694.346 796.677C694.346 787.612 706.621 783.079 706.621 783.079Z" fill="#B904A9"/>
<path d="M1773.91 706.434C1837.92 706.434 1846.43 782.843 1846.43 782.843H1835.71C1835.71 782.843 1831.99 716.895 1773.91 716.895C1715.83 716.895 1707.26 783.98 1707.26 783.98H1696.56C1696.56 783.98 1709.91 706.434 1773.91 706.434Z" fill="#B904A9"/>
<path d="M1589.78 706.434C1653.79 706.434 1662.31 782.843 1662.31 782.843H1651.58C1651.58 782.843 1647.87 716.895 1589.78 716.895C1531.7 716.895 1523.14 783.98 1523.14 783.98H1512.43C1512.43 783.98 1525.78 706.434 1589.78 706.434Z" fill="#B904A9"/>
<path d="M1405.65 706.434C1469.66 706.434 1478.18 782.843 1478.18 782.843H1467.46C1467.46 782.843 1463.74 716.895 1405.65 716.895C1347.57 716.895 1339.01 783.98 1339.01 783.98H1328.3C1328.3 783.98 1341.65 706.434 1405.65 706.434Z" fill="#B904A9"/>
<path d="M1221.53 706.434C1285.53 706.434 1294.05 782.843 1294.05 782.843H1283.33C1283.33 782.843 1279.61 716.895 1221.53 716.895C1163.44 716.895 1154.88 783.98 1154.88 783.98H1144.18C1144.18 783.98 1157.52 706.434 1221.53 706.434Z" fill="#B904A9"/>
<path d="M1037.4 706.434C1101.4 706.434 1109.92 782.843 1109.92 782.843H1099.2C1099.2 782.843 1095.48 716.895 1037.4 716.895C979.314 716.895 970.751 783.98 970.751 783.98H960.047C960.047 783.98 973.393 706.434 1037.4 706.434Z" fill="#B904A9"/>
<path d="M853.271 706.434C917.276 706.434 925.795 782.843 925.795 782.843H915.072C915.072 782.843 911.354 716.895 853.271 716.895C795.187 716.895 786.624 783.98 786.624 783.98H775.92C775.92 783.98 789.266 706.434 853.271 706.434Z" fill="#B904A9"/>
<path d="M706.621 1172.89H1928.03C1928.03 1172.89 1940.31 1177.42 1940.31 1186.48C1940.31 1195.55 1928.03 1200.08 1928.03 1200.08H706.621C706.621 1200.08 694.346 1195.55 694.346 1186.48C694.346 1177.42 706.621 1172.89 706.621 1172.89Z" fill="#B904A9"/>
<path d="M1773.91 1095.3C1837.92 1095.3 1846.44 1171.71 1846.44 1171.71H1835.71C1835.71 1171.71 1831.99 1105.76 1773.91 1105.76C1715.83 1105.76 1707.26 1172.85 1707.26 1172.85H1696.56C1696.56 1172.85 1709.91 1095.3 1773.91 1095.3Z" fill="#B904A9"/>
<path d="M1589.78 1095.3C1653.79 1095.3 1662.31 1171.71 1662.31 1171.71H1651.59C1651.59 1171.71 1647.87 1105.76 1589.78 1105.76C1531.7 1105.76 1523.14 1172.85 1523.14 1172.85H1512.43C1512.43 1172.85 1525.78 1095.3 1589.78 1095.3Z" fill="#B904A9"/>
<path d="M1405.66 1095.3C1469.66 1095.3 1478.18 1171.71 1478.18 1171.71H1467.46C1467.46 1171.71 1463.74 1105.76 1405.66 1105.76C1347.57 1105.76 1339.01 1172.85 1339.01 1172.85H1328.31C1328.31 1172.85 1341.65 1095.3 1405.66 1095.3Z" fill="#B904A9"/>
<path d="M1221.53 1095.3C1285.53 1095.3 1294.05 1171.71 1294.05 1171.71H1283.33C1283.33 1171.71 1279.61 1105.76 1221.53 1105.76C1163.44 1105.76 1154.88 1172.85 1154.88 1172.85H1144.18C1144.18 1172.85 1157.52 1095.3 1221.53 1095.3Z" fill="#B904A9"/>
<path d="M1037.4 1095.3C1101.4 1095.3 1109.92 1171.71 1109.92 1171.71H1099.2C1099.2 1171.71 1095.48 1105.76 1037.4 1105.76C979.316 1105.76 970.753 1172.85 970.753 1172.85H960.049C960.049 1172.85 973.394 1095.3 1037.4 1095.3Z" fill="#B904A9"/>
<path d="M853.272 1095.3C917.277 1095.3 925.796 1171.71 925.796 1171.71H915.073C915.073 1171.71 911.356 1105.76 853.272 1105.76C795.188 1105.76 786.625 1172.85 786.625 1172.85H775.921C775.921 1172.85 789.267 1095.3 853.272 1095.3Z" fill="#B904A9"/>
<path d="M706.621 1562.69H1928.03C1928.03 1562.69 1940.31 1567.23 1940.31 1576.29C1940.31 1585.36 1928.03 1589.89 1928.03 1589.89H706.621C706.621 1589.89 694.346 1585.36 694.346 1576.29C694.346 1567.23 706.621 1562.69 706.621 1562.69Z" fill="#B904A9"/>
<path d="M1773.91 1484.17C1837.92 1484.17 1846.44 1560.57 1846.44 1560.57H1835.71C1835.71 1560.57 1831.99 1494.63 1773.91 1494.63C1715.83 1494.63 1707.26 1561.71 1707.26 1561.71H1696.56C1696.56 1561.71 1709.91 1484.17 1773.91 1484.17Z" fill="#B904A9"/>
<path d="M1589.78 1484.17C1653.79 1484.17 1662.31 1560.57 1662.31 1560.57H1651.59C1651.59 1560.57 1647.87 1494.63 1589.78 1494.63C1531.7 1494.63 1523.14 1561.71 1523.14 1561.71H1512.43C1512.43 1561.71 1525.78 1484.17 1589.78 1484.17Z" fill="#B904A9"/>
<path d="M1405.66 1484.17C1469.66 1484.17 1478.18 1560.57 1478.18 1560.57H1467.46C1467.46 1560.57 1463.74 1494.63 1405.66 1494.63C1347.57 1494.63 1339.01 1561.71 1339.01 1561.71H1328.3C1328.3 1561.71 1341.65 1484.17 1405.66 1484.17Z" fill="#B904A9"/>
<path d="M1221.53 1484.17C1285.53 1484.17 1294.05 1560.57 1294.05 1560.57H1283.33C1283.33 1560.57 1279.61 1494.63 1221.53 1494.63C1163.44 1494.63 1154.88 1561.71 1154.88 1561.71H1144.18C1144.18 1561.71 1157.52 1484.17 1221.53 1484.17Z" fill="#B904A9"/>
<path d="M1037.4 1484.17C1101.4 1484.17 1109.92 1560.57 1109.92 1560.57H1099.2C1099.2 1560.57 1095.48 1494.63 1037.4 1494.63C979.316 1494.63 970.753 1561.71 970.753 1561.71H960.049C960.049 1561.71 973.394 1484.17 1037.4 1484.17Z" fill="#B904A9"/>
<path d="M853.272 1484.17C917.277 1484.17 925.796 1560.57 925.796 1560.57H915.073C915.073 1560.57 911.356 1494.63 853.272 1494.63C795.188 1494.63 786.625 1561.71 786.625 1561.71H775.921C775.921 1561.71 789.267 1484.17 853.272 1484.17Z" fill="#B904A9"/>
<rect width="667.929" height="188.748" rx="14" transform="matrix(-1 0 0 1 1628.05 1977.64)" fill="url(#paint13_linear)"/>
<path d="M1174.07 2040.08C1181.54 2037.55 1189.27 2036.28 1197.27 2036.28C1205.27 2036.28 1211.91 2037.98 1217.17 2041.38C1222.44 2044.78 1225.07 2049.98 1225.07 2056.98C1225.07 2063.98 1222.61 2069.88 1217.67 2074.68C1212.74 2079.41 1206.81 2081.78 1199.87 2081.78C1194.81 2081.78 1192.27 2079.85 1192.27 2075.98C1192.27 2074.78 1192.51 2073.51 1192.97 2072.18C1194.77 2072.65 1196.41 2072.88 1197.87 2072.88C1202.47 2072.88 1205.94 2071.61 1208.27 2069.08C1210.67 2066.55 1211.87 2063.05 1211.87 2058.58C1211.87 2054.05 1210.61 2050.68 1208.07 2048.48C1205.54 2046.28 1202.01 2045.18 1197.47 2045.18C1195.14 2045.18 1192.31 2045.58 1188.97 2046.38C1188.44 2054.58 1188.17 2061.85 1188.17 2068.18C1188.17 2085.91 1188.87 2098.75 1190.27 2106.68C1188.14 2107.48 1185.87 2107.88 1183.47 2107.88C1181.07 2107.88 1178.97 2107.11 1177.17 2105.58C1175.44 2104.05 1174.57 2102.01 1174.57 2099.48C1174.57 2096.95 1174.91 2092.55 1175.57 2086.28C1176.24 2079.95 1176.57 2074.88 1176.57 2071.08C1176.57 2059.48 1175.74 2049.15 1174.07 2040.08ZM1248.55 2044.98C1248.55 2049.98 1248.05 2056.58 1247.05 2064.78C1246.12 2072.98 1245.65 2079.31 1245.65 2083.78C1245.65 2088.25 1246.85 2091.98 1249.25 2094.98C1251.65 2097.91 1255.22 2099.38 1259.95 2099.38C1261.89 2099.38 1264.22 2098.91 1266.95 2097.98C1269.69 2097.05 1271.85 2095.85 1273.45 2094.38C1274.32 2086.98 1274.75 2077.48 1274.75 2065.88C1274.75 2054.21 1273.92 2044.75 1272.25 2037.48C1274.39 2036.68 1276.65 2036.28 1279.05 2036.28C1281.45 2036.28 1283.52 2037.05 1285.25 2038.58C1287.05 2040.11 1287.95 2042.11 1287.95 2044.58C1287.95 2047.05 1287.65 2051.28 1287.05 2057.28C1286.52 2063.28 1286.25 2070.01 1286.25 2077.48C1286.25 2084.88 1286.59 2091.41 1287.25 2097.08C1277.52 2105.08 1267.65 2109.08 1257.65 2109.08C1250.05 2109.08 1244.12 2107.15 1239.85 2103.28C1235.65 2099.35 1233.55 2093.68 1233.55 2086.28C1233.55 2083.95 1233.75 2079.75 1234.15 2073.68C1234.62 2067.55 1234.85 2063.08 1234.85 2060.28C1234.85 2050.21 1234.19 2042.81 1232.85 2038.08C1234.99 2037.28 1237.25 2036.88 1239.65 2036.88C1242.05 2036.88 1244.12 2037.65 1245.85 2039.18C1247.65 2040.71 1248.55 2042.65 1248.55 2044.98ZM1331.06 2058.48C1331.33 2057.15 1331.46 2055.78 1331.46 2054.38C1331.46 2047.91 1328.29 2044.68 1321.96 2044.68C1319.09 2044.68 1316.66 2045.28 1314.66 2046.48C1312.79 2048.68 1311.86 2051.31 1311.86 2054.38C1311.86 2056.38 1312.73 2058.11 1314.46 2059.58C1316.19 2060.98 1318.33 2062.08 1320.86 2062.88C1323.46 2063.68 1326.26 2064.68 1329.26 2065.88C1332.26 2067.08 1335.03 2068.38 1337.56 2069.78C1340.16 2071.11 1342.33 2073.15 1344.06 2075.88C1345.79 2078.55 1346.66 2081.71 1346.66 2085.38C1346.66 2092.38 1343.96 2098.08 1338.56 2102.48C1333.23 2106.88 1326.79 2109.08 1319.26 2109.08C1313.19 2109.08 1308.03 2107.58 1303.76 2104.58C1299.56 2101.51 1297.46 2097.25 1297.46 2091.78C1297.46 2088.98 1298.29 2086.65 1299.96 2084.78C1301.69 2082.85 1303.73 2081.88 1306.06 2081.88C1308.46 2081.88 1310.23 2082.18 1311.36 2082.78C1310.83 2084.78 1310.56 2086.58 1310.56 2088.18C1310.56 2091.78 1311.56 2094.65 1313.56 2096.78C1315.63 2098.85 1318.46 2099.88 1322.06 2099.88C1325.66 2099.88 1328.56 2098.95 1330.76 2097.08C1332.96 2095.21 1334.06 2092.75 1334.06 2089.68C1334.06 2086.55 1332.83 2083.98 1330.36 2081.98C1327.96 2079.98 1325.03 2078.38 1321.56 2077.18C1318.09 2075.98 1314.63 2074.71 1311.16 2073.38C1307.69 2072.05 1304.73 2070.08 1302.26 2067.48C1299.86 2064.81 1298.66 2061.48 1298.66 2057.48C1298.66 2051.21 1301.36 2046.01 1306.76 2041.88C1312.23 2037.75 1318.39 2035.68 1325.26 2035.68C1330.33 2035.68 1334.69 2036.71 1338.36 2038.78C1342.09 2040.78 1343.96 2043.85 1343.96 2047.98C1343.96 2050.98 1342.99 2053.55 1341.06 2055.68C1339.13 2057.75 1336.69 2058.78 1333.76 2058.78C1332.96 2058.78 1332.06 2058.68 1331.06 2058.48ZM1371.41 2106.68C1369.28 2107.48 1367.01 2107.88 1364.61 2107.88C1362.21 2107.88 1360.11 2107.11 1358.31 2105.58C1356.58 2104.05 1355.71 2101.95 1355.71 2099.28C1355.71 2096.61 1356.05 2091.51 1356.71 2083.98C1357.38 2076.38 1357.71 2070.31 1357.71 2065.78C1357.71 2054.11 1357.01 2044.88 1355.61 2038.08C1357.75 2037.28 1360.01 2036.88 1362.41 2036.88C1364.81 2036.88 1366.88 2037.65 1368.61 2039.18C1370.41 2040.71 1371.31 2042.61 1371.31 2044.88C1371.31 2047.08 1371.21 2049.21 1371.01 2051.28C1370.88 2053.35 1370.68 2055.71 1370.41 2058.38C1370.15 2061.05 1369.95 2063.38 1369.81 2065.38C1372.48 2065.65 1377.08 2065.78 1383.61 2065.78C1390.15 2065.78 1395.18 2065.51 1398.71 2064.98C1398.71 2054.38 1398.01 2045.21 1396.61 2037.48C1398.75 2036.68 1401.01 2036.28 1403.41 2036.28C1405.81 2036.28 1407.88 2037.05 1409.61 2038.58C1411.41 2040.11 1412.31 2042.25 1412.31 2044.98C1412.31 2047.65 1411.98 2052.41 1411.31 2059.28C1410.65 2066.15 1410.31 2071.65 1410.31 2075.78C1410.31 2088.85 1411.01 2099.35 1412.41 2107.28C1410.28 2108.08 1408.01 2108.48 1405.61 2108.48C1403.21 2108.48 1401.11 2107.71 1399.31 2106.18C1397.58 2104.65 1396.71 2102.61 1396.71 2100.08C1396.71 2097.55 1396.98 2093.41 1397.51 2087.68C1398.05 2081.95 1398.38 2078.01 1398.51 2075.88C1391.98 2075.41 1382.25 2075.18 1369.31 2075.18V2077.78C1369.31 2089.58 1370.01 2099.21 1371.41 2106.68Z" fill="#9566C8"/>
<path d="M866.537 1761.3L959.138 1603.72L866.833 1549.47L772.174 1710.56C768.881 1716.16 773.279 1723.77 775.89 1726.88L845.119 1767.56C855.668 1773.76 863.793 1765.97 866.537 1761.3Z" fill="#E52C87"/>
<path d="M845 1585.55L813 1588.05L791.5 1602.55L808 1643.05L831.5 1668.55H842.5L847.5 1649.05L831.5 1616.55L845 1585.55Z" fill="#FFBC70"/>
<path d="M643.283 1402.02C635.065 1377 600.5 1145.05 593.632 1131.39C586.764 1117.73 574 1104.55 540.725 1119.71C507.45 1134.88 509.229 1147.8 513.865 1171.42C518.5 1195.05 573.159 1439.6 581.83 1460.82C590.5 1482.05 801.232 1637.55 812.501 1631.05C823.77 1624.55 825.001 1592.05 823.77 1584.11C822.539 1576.16 651.5 1427.05 643.283 1402.02Z" fill="#9E332D"/>
<path d="M984.63 1515.05L996.977 1494.04L944.231 1463.05L931.884 1484.06L984.63 1515.05Z" fill="#E52C87"/>
<path d="M955.842 1601.78L978.037 1511.18L938.478 1487.93L870.13 1551.41L955.842 1601.78Z" fill="white"/>
<path d="M361.477 2473.43C363.526 2248.01 367.951 1792.06 369.263 1771.65L245.099 1737.77V2099.96L281.16 2462.14C281.16 2462.14 272.145 2467.16 269.686 2473.43C267.227 2479.71 267.227 2505.22 267.227 2505.22L337.71 2620.65L405.323 2633.61L420.895 2620.65L389.752 2608.1L361.477 2473.43Z" fill="#FFBC70"/>
<path d="M187.371 2473.43C189.42 2248.01 193.846 1792.06 195.157 1771.65L70.9937 1737.77L100.088 2169.38L107.054 2462.14C107.054 2462.14 98.0392 2467.16 95.5806 2473.43C93.1219 2479.71 93.1219 2505.22 93.1219 2505.22L163.604 2620.65L231.218 2633.61L246.79 2620.65L215.646 2608.1L187.371 2473.43Z" fill="#FFBC70"/>
<path d="M601.763 994.276L573.277 1057.29L519.969 1072.84L491.89 1037.55L496.367 986.714L540.316 928.738L601.763 994.276Z" fill="#FFCFA0"/>
<path d="M261.521 2659.65V2545.67L287.145 2659.65H416.078L422.585 2619.84L394.928 2622.36L348.968 2617.33L274.13 2465.21L252.98 2466.47L241.592 2488.26L238.338 2531.42L261.521 2659.65Z" fill="#5A3C20"/>
<path d="M85.7255 2659.65V2545.67L111.349 2659.65H240.282L246.79 2619.84L219.132 2622.36L173.172 2617.33L98.334 2465.21L77.1842 2466.47L65.7958 2488.26L62.542 2531.42L85.7255 2659.65Z" fill="#5A3C20"/>
<path d="M589.93 1132.06V1056.04L554.025 1061.05C532.913 1033.76 489.074 976.426 482.62 965.399C476.165 954.371 431.885 1003.3 414 1024.05L499.16 1137.07L589.93 1132.06Z" fill="white"/>
<path d="M524.05 1280.3L567.992 1186.31L601.763 1120.72H498.417L409.313 1001.66L89.5118 1399.78L36.2117 1575.66L0.000183105 1826.73C0.000183105 1826.73 0.000183105 1870.17 219.304 1891.48C438.607 1912.79 404.837 1847.62 404.837 1847.62L347.468 1428.19L440.235 1290.33L524.05 1280.3Z" fill="#E35248"/>
<path d="M654.322 742.974L760.654 859.001C760.654 859.001 714.5 1021.55 700.359 1031.17C686.217 1040.8 609.5 1042.55 591.175 1031.17C572.849 1019.8 522 889.545 522 889.545C522 889.545 504 889.545 496.657 879.545C489.314 869.545 496.657 826.045 496.657 814.545C496.657 803.045 526.397 785.392 526.397 785.392L535.36 844.445L654.322 742.974Z" fill="#F8CBA0"/>
<path d="M632.344 759.131C601.087 788.224 537.921 846.41 535.312 846.41L522.673 868.96L507.588 815.925L544.689 671.852L503.104 651.807L476.603 721.129L382.017 894.017L388.133 656.401L463.149 552L529.604 560.77L563.443 651.807L618.89 622.157L819.885 737.416L833.339 838.475C809.557 853.37 761.34 883.326 758.731 883.994C756.121 884.662 673.386 801.03 632.344 759.131Z" fill="#915F44"/>
<path d="M65 1663.55V1602.55V1557.05L108.5 1574.55V1602.55L133.5 1626.55L139 1663.55L122.5 1648.05L133.5 1667.05V1711.05L115.5 1753.55L94 1736.55L65 1663.55Z" fill="#FFBC70"/>
<path d="M415.042 1003.88C424.847 1018.4 428.928 1045.04 421.194 1066.51C413.459 1087.98 162.608 1267.24 162.608 1267.24L113.331 1595.54L59.3874 1585.92C59.3874 1585.92 63.3084 1339.94 108.104 1243.24C152.899 1146.55 343.372 1010.38 361.956 1003.33C380.541 996.28 405.237 989.367 415.042 1003.88Z" fill="#A23030"/>
<path d="M1217.5 2632.28V2179.25H1323.71V2632.28C1323.71 2647.32 1252.9 2638.55 1217.5 2632.28Z" fill="#FBBE92"/>
<path d="M1382.21 2632.28V2179.25H1482.14V2632.28H1382.21Z" fill="#FBBE92"/>
<path d="M1283.31 1560.47L1288.88 1526.35L1330.67 1514.16L1379.77 1526.35C1383.83 1551.07 1391.82 1601.01 1391.26 1602.96C1390.7 1604.91 1365.03 1630.7 1352.26 1643.35L1276.7 1600.52L1283.31 1560.47Z" fill="#FFC798"/>
<path d="M1212.62 2273.97C1203.92 2259.69 1207.05 2048.07 1212.62 2038.45C1218.2 2028.82 1212.62 2014.89 1212.62 2014.89H1487.71C1487.71 2095.61 1498.51 2249.94 1487.71 2267.71C1476.92 2285.48 1365.14 2271.88 1355.85 2267.71C1346.55 2263.54 1355.85 2147.74 1355.85 2147.74H1343.54L1340.42 2221.73C1340.42 2221.73 1347.03 2262.82 1343.54 2273.97C1340.05 2285.11 1221.33 2288.24 1212.62 2273.97Z" fill="black"/>
<path d="M1467.98 2030.21H1441.05C1441.05 2030.21 1452.1 2275.95 1455.71 2275.95C1459.32 2275.95 1466.47 2276.75 1473.09 2273.96C1479.71 2271.18 1467.98 2030.21 1467.98 2030.21Z" fill="white"/>
<path d="M1177.11 1802.48L1285.4 1763.13H1329.63V1812.23L1184.07 1851.58L1132.19 1889.54H1081V1851.58L1107.81 1812.23L1177.11 1802.48Z" fill="#FFC29A"/>
<path d="M1287.49 1555.95H1261.72C1261.72 1555.95 1238.99 1585.53 1226.02 1629.84C1213.06 1674.16 1201.13 2024.3 1213.67 2037.18C1226.21 2050.06 1404.49 2027.08 1441.05 2037.18C1477.62 2047.28 1492.94 2041.71 1492.24 2014.2C1491.54 1986.69 1487.71 1702.55 1487.71 1702.55L1401.36 1597.38C1401.36 1597.38 1434.36 1559.17 1413.54 1555.95C1392.73 1552.72 1382.55 1555.95 1382.55 1555.95L1346.34 1613.05H1310.13L1287.49 1555.95Z" fill="#476DF4"/>
<path d="M1391.66 1554.76L1394.61 1616.59L1486.32 1731.1L1387.78 1873.87L1333.8 1854.72V1916.7L1415.29 1922.27L1571.29 1731.1C1571.29 1731.1 1452.46 1575.3 1436.57 1562.85C1420.68 1550.41 1391.66 1554.76 1391.66 1554.76Z" fill="#FFC9A2"/>
<path d="M1200.79 1471.33V1371.05L1214.37 1325.43L1278.79 1310.11L1328.23 1301.75L1362.01 1334.83L1405.19 1401.69L1433.39 1391.59L1452.2 1412.48V1445.21L1429.56 1456.01L1396.13 1530.88L1340.07 1548.63L1287.49 1555.6L1248.84 1548.63L1200.79 1471.33Z" fill="#FFAC70"/>
<path d="M1232.12 1361.29L1295.15 1335.53H1339.72C1346.11 1345.63 1359.22 1366.45 1360.62 1368.96C1362.01 1371.46 1367.46 1389.5 1370.02 1398.21L1392.3 1405.87L1433.04 1408.3L1439.31 1449.39L1402.05 1489.44L1418.42 1498.49L1460.55 1470.98L1480.05 1408.3L1469.26 1329.96L1394.74 1235.24L1311.17 1214L1232.12 1243.6L1172.93 1313.94L1177.8 1368.96L1232.12 1361.29Z" fill="#76442D"/>
<path d="M1324.27 2530.95H1217.5V2640.29H1324.27V2530.95Z" fill="white"/>
<path d="M1482.14 2530.95H1376.78V2640.29H1482.14V2530.95Z" fill="white"/>
<path d="M1148.55 2645.16L1220.98 2631.93H1329.28V2688.69H1148.55V2645.16Z" fill="#F74343"/>
<path d="M1303.86 2645.16L1376.29 2631.93H1484.58V2688.69H1303.86V2645.16Z" fill="#F74343"/>
<path d="M1332.41 2675.8H1145.77V2692.87H1332.41V2675.8Z" fill="#070707"/>
<path d="M1487.71 2675.8H1301.07V2692.87H1487.71V2675.8Z" fill="#070707"/>
<defs>
<linearGradient id="paint0_linear" x1="1324" y1="0" x2="1324" y2="2427" gradientUnits="userSpaceOnUse">
<stop stop-color="#7818EE"/>
<stop offset="1" stop-color="#9E4BF5"/>
</linearGradient>
<linearGradient id="paint1_linear" x1="1770.36" y1="191.959" x2="1770.36" y2="386.081" gradientUnits="userSpaceOnUse">
<stop stop-color="#F66552"/>
<stop offset="1" stop-color="#BB370D"/>
</linearGradient>
<linearGradient id="paint2_linear" x1="1588.4" y1="192.858" x2="1588.4" y2="386.98" gradientUnits="userSpaceOnUse">
<stop stop-color="#F66552"/>
<stop offset="1" stop-color="#BB370D"/>
</linearGradient>
<linearGradient id="paint3_linear" x1="1406.45" y1="193.759" x2="1406.45" y2="387.881" gradientUnits="userSpaceOnUse">
<stop stop-color="#F66552"/>
<stop offset="1" stop-color="#BB370D"/>
</linearGradient>
<linearGradient id="paint4_linear" x1="1224.49" y1="194.658" x2="1224.49" y2="388.78" gradientUnits="userSpaceOnUse">
<stop stop-color="#F66552"/>
<stop offset="1" stop-color="#BB370D"/>
</linearGradient>
<linearGradient id="paint5_linear" x1="1042.53" y1="195.556" x2="1042.53" y2="389.678" gradientUnits="userSpaceOnUse">
<stop stop-color="#F66552"/>
<stop offset="1" stop-color="#BB370D"/>
</linearGradient>
<linearGradient id="paint6_linear" x1="860.571" y1="196.457" x2="860.571" y2="390.579" gradientUnits="userSpaceOnUse">
<stop stop-color="#F66552"/>
<stop offset="1" stop-color="#BB370D"/>
</linearGradient>
<linearGradient id="paint7_linear" x1="1770.36" y1="970.593" x2="1770.36" y2="1164.71" gradientUnits="userSpaceOnUse">
<stop stop-color="#52D8F6"/>
<stop offset="1" stop-color="#FFE600"/>
</linearGradient>
<linearGradient id="paint8_linear" x1="1588.4" y1="970.593" x2="1588.4" y2="1164.71" gradientUnits="userSpaceOnUse">
<stop stop-color="#52D8F6"/>
<stop offset="1" stop-color="#FFE600"/>
</linearGradient>
<linearGradient id="paint9_linear" x1="1406.45" y1="970.593" x2="1406.45" y2="1164.71" gradientUnits="userSpaceOnUse">
<stop stop-color="#52D8F6"/>
<stop offset="1" stop-color="#FFE600"/>
</linearGradient>
<linearGradient id="paint10_linear" x1="1224.49" y1="970.593" x2="1224.49" y2="1164.71" gradientUnits="userSpaceOnUse">
<stop stop-color="#52D8F6"/>
<stop offset="1" stop-color="#FFE600"/>
</linearGradient>
<linearGradient id="paint11_linear" x1="1042.53" y1="970.593" x2="1042.53" y2="1164.71" gradientUnits="userSpaceOnUse">
<stop stop-color="#52D8F6"/>
<stop offset="1" stop-color="#FFE600"/>
</linearGradient>
<linearGradient id="paint12_linear" x1="860.575" y1="970.593" x2="860.575" y2="1164.71" gradientUnits="userSpaceOnUse">
<stop stop-color="#52D8F6"/>
<stop offset="1" stop-color="#FFE600"/>
</linearGradient>
<linearGradient id="paint13_linear" x1="333.965" y1="0" x2="333.965" y2="188.748" gradientUnits="userSpaceOnUse">
<stop stop-color="#612A9C"/>
<stop offset="1" stop-color="#5A00BB"/>
</linearGradient>
</defs>
</svg>
