<svg width="3016" height="3581" viewBox="0 0 3016 3581" fill="none" xmlns="http://www.w3.org/2000/svg">
<path d="M390.82 3087.24H58.7728H17.8232V2945.7H87.2595V2242.43H41.8589V2152.52H137.111V1962.02H280.435V2152.52H373.907V2242.43H332.067V2945.7H390.82V3087.24Z" fill="#323232"/>
<path d="M17.8232 320.475L134.441 648.961H270.642L388.15 320.475H17.8232Z" fill="white"/>
<path d="M189.634 155.786L0.0195312 314.243L4.47057 355.193L39.1887 383.68L129.99 656.083H145.123L77.4676 351.632H184.293L200.316 656.083H216.34L235.034 351.632H328.506L269.753 656.083H285.776L364.115 383.68L397.052 355.193V314.243L219.011 155.786L203.877 0L189.634 155.786Z" fill="#363636"/>
<path d="M184.292 824.332L164.707 1962.02H250.167L225.242 824.332H270.642L299.129 734.421L378.357 677.448V626.706L299.129 647.181H119.307L32.0664 626.706V677.448L111.295 734.421L142.452 824.332H184.292Z" fill="#3E433F"/>
<circle r="832.528" transform="matrix(-1 0 0 1 2182.49 1648.32)" fill="#BBF3FF"/>
<path d="M1804.06 1966.78C1781.89 2039.16 1599.12 2239.08 1599.12 2242.12C1599.12 2245.16 1662.92 2298.33 1662.92 2298.33L1734.32 2353.02C1806.75 2399.89 1885.66 2430.5 1902.95 2430.5C1937.92 2430.5 2122.6 2176.06 2139.61 2165.91C2156.62 2155.76 2155.79 2164.8 2197.01 2147.94C2238.23 2131.08 2497.81 1878.23 2497.81 1878.23L2505.9 1869.66L2512.83 1830.28L2455.9 1783.02L2495.47 1760.52C2495.47 1760.52 2512.83 1744.82 2512.83 1721.97C2512.83 1699.13 2444.99 1676.98 2444.99 1676.98C2444.99 1676.98 2498.97 1656.74 2505.9 1632.6C2512.83 1608.45 2505.7 1578.13 2483.68 1569.22C2461.66 1560.3 2426.88 1564.07 2426.88 1564.07L2354.52 1619.56L2154.09 1738.71L2139.61 1733.09L2293.26 1608.45C2293.26 1608.45 2505.15 1484.27 2512.83 1475.35C2520.51 1466.43 2535.92 1437.56 2521.93 1409.78C2507.94 1382 2466.53 1396.93 2466.53 1396.93L2225.35 1532.73L1990.9 1707.23C1991.45 1697.69 2001.04 1651.82 2035.01 1544.59C2068.98 1437.37 2043.58 1384.84 2023.14 1377.5C2002.7 1370.16 1986.99 1374.48 1983.91 1382.03C1980.82 1389.57 1968.13 1444.45 1968.13 1444.45C1952.49 1503.5 1852.28 1674.85 1823.33 1760.52C1794.38 1846.2 1831.77 1876.31 1804.06 1966.78Z" fill="url(#paint0_linear)"/>
<path d="M1987.03 1873.48L2091.79 1132.9C2093.93 1117.78 2107.77 1107.35 2122.89 1109.46L2484.68 1159.93C2500.18 1162.09 2511.09 1176.57 2508.9 1192.07L2402.05 1947.4C2399.85 1962.96 2385.3 1973.47 2369.83 1970.66L2010.13 1905.45C1995.15 1902.73 1984.9 1888.54 1987.03 1873.48Z" fill="#424255"/>
<path d="M2012.59 1831.42L2107.04 1163.74C2109.18 1148.62 2123.01 1138.19 2138.14 1140.3L2461.62 1185.42C2477.12 1187.58 2488.03 1202.07 2485.84 1217.57L2389.53 1898.44C2387.32 1914 2372.77 1924.5 2357.3 1921.7L2035.69 1863.39C2020.71 1860.68 2010.46 1846.48 2012.59 1831.42Z" fill="#0C0C0C"/>
<path d="M2125.25 1324.38L2220.49 1338.3C2220.49 1338.3 2226.56 1325.71 2233.31 1279.52C2240.06 1233.34 2237.85 1219.54 2237.85 1219.54L2142.61 1205.61C2142.61 1205.61 2136.54 1218.2 2129.79 1264.39C2123.04 1310.57 2125.25 1324.38 2125.25 1324.38Z" fill="url(#paint1_linear)"/>
<path d="M2240.71 1228.94L2242.64 1215.74L2139.12 1200.61L2137.19 1213.8L2240.71 1228.94Z" fill="#FF5C00"/>
<path d="M2223.98 1343.3L2225.91 1330.11L2122.39 1314.97L2120.46 1328.17L2223.98 1343.3Z" fill="#FF5C00"/>
<ellipse rx="27.202" ry="28.8954" transform="matrix(-0.989481 -0.144663 -0.144663 0.989481 2181.55 1271.96)" fill="#FF6B00"/>
<path d="M2201.9 1267.99C2211.17 1269.35 2217 1281.31 2217 1281.31L2212.32 1284.57C2212.32 1284.57 2207.64 1276.16 2200.95 1274.48C2194.27 1272.8 2184.06 1281.14 2168.79 1283.12C2153.52 1285.11 2144.9 1262.07 2144.9 1262.07L2150.28 1258.22C2150.28 1258.22 2158.87 1277.25 2170.63 1274.53C2182.4 1271.8 2192.63 1266.63 2201.9 1267.99Z" fill="white"/>
<path d="M2173.69 1392.09L2175.72 1379.44L2143.96 1374.35L2141.93 1387L2173.69 1392.09Z" fill="#E52C87"/>
<path d="M2176.18 1440.07L2169.72 1391.45L2145.91 1387.63L2124.57 1431.79L2176.18 1440.07Z" fill="white"/>
<path d="M2162.94 1535.26L2178.16 1440.39L2122.58 1431.47L2107.02 1528.45C2106.48 1531.83 2110.09 1534.71 2111.96 1535.73L2153.64 1542.42C2160 1543.44 2162.49 1538.07 2162.94 1535.26Z" fill="#E52C87"/>
<path d="M2413.81 1634.44C2392.89 1588.62 2419.87 1567.87 2426.98 1563.79C2434.08 1559.7 2488.71 1548.22 2504.69 1595.75C2520.67 1643.29 2484.11 1659.27 2484.11 1659.27C2484.11 1659.27 2434.73 1680.26 2413.81 1634.44Z" fill="#FFAEAD"/>
<path d="M2394.81 1750.91C2373.89 1705.09 2417.03 1686.02 2425.81 1683.07C2434.59 1680.12 2492.76 1659.45 2508.74 1706.98C2524.72 1754.52 2479.6 1772.97 2479.6 1772.97C2479.6 1772.97 2415.74 1796.73 2394.81 1750.91Z" fill="#FFAEAD"/>
<path d="M2462.41 1604.08C2457.47 1592.28 2438.61 1591.6 2437.72 1587.14C2436.82 1582.68 2459.05 1582.48 2467.35 1584.81C2475.65 1587.14 2478.74 1589.37 2481.48 1593.93C2484.22 1598.49 2485.73 1604.08 2484.22 1612.38C2482.71 1620.68 2475.99 1632.21 2470.71 1635.15C2465.43 1638.1 2467.35 1615.88 2462.41 1604.08Z" fill="white"/>
<path d="M2393.13 1840.97C2372.21 1795.15 2399.96 1789.86 2408.77 1788.32C2417.58 1786.78 2430.58 1785.1 2461.69 1782.46C2477.3 1783.35 2492.32 1786 2502.7 1799.34C2513.09 1812.68 2518.82 1865.32 2502.7 1872.11C2486.59 1878.91 2414.05 1886.79 2393.13 1840.97Z" fill="#FFAEAD"/>
<path d="M2436.55 1725.22C2431.61 1714.38 2415.63 1714.31 2418.24 1710.4C2420.84 1706.49 2443.69 1699.63 2449.45 1700.25C2455.21 1700.87 2462.82 1704.09 2465.09 1710.4C2467.35 1716.71 2467.97 1718.15 2467.97 1728.1C2467.97 1738.04 2445.26 1752.72 2440.39 1754.78C2435.52 1756.84 2441.49 1736.06 2436.55 1725.22Z" fill="white"/>
<path d="M2418.1 1802.39C2411.65 1789.63 2392.45 1792.92 2398.48 1791C2404.52 1789.08 2417.28 1785.65 2425.51 1786.61C2433.74 1787.57 2453.49 1793.61 2452.88 1803.21C2452.26 1812.81 2452.19 1810.14 2450.41 1814.05C2448.62 1817.96 2426.88 1826.46 2423.52 1826.12C2420.16 1825.78 2424.55 1815.14 2418.1 1802.39Z" fill="white"/>
<path d="M2134.84 1593.74L2136.22 1586.1L2114.22 1582.15L2112.84 1589.78L2134.84 1593.74Z" fill="#62F900"/>
<path d="M2136.69 1622.98L2132.1 1593.25L2115.6 1590.28L2100.94 1616.56L2136.69 1622.98Z" fill="white"/>
<path d="M2127.76 1680.52L2138.06 1623.23L2099.56 1616.31L2089.03 1674.87C2088.67 1676.91 2091.17 1678.76 2092.47 1679.43L2121.35 1684.63C2125.75 1685.42 2127.46 1682.22 2127.76 1680.52Z" fill="#62F900"/>
<rect x="2257.46" y="1231.12" width="201.803" height="12.5" transform="rotate(8.10935 2257.46 1231.12)" fill="#AAAAAA" fill-opacity="0.49"/>
<rect x="2225.34" y="1421.15" width="201.803" height="12.5" transform="rotate(8.10935 2225.34 1421.15)" fill="#AAAAAA" fill-opacity="0.49"/>
<rect x="2194.3" y="1600.47" width="201.803" height="12.5" transform="rotate(8.10935 2194.3 1600.47)" fill="#AAAAAA" fill-opacity="0.49"/>
<rect x="2250.7" y="1263.77" width="201.803" height="12.5" transform="rotate(8.10935 2250.7 1263.77)" fill="#AAAAAA" fill-opacity="0.49"/>
<rect x="2247.49" y="1297.5" width="92.5932" height="12.5" transform="rotate(8.10935 2247.49 1297.5)" fill="#AAAAAA" fill-opacity="0.49"/>
<rect x="2214.3" y="1489.13" width="92.5932" height="12.5" transform="rotate(8.10935 2214.3 1489.13)" fill="#AAAAAA" fill-opacity="0.49"/>
<rect x="2183.25" y="1668.45" width="92.5932" height="12.5" transform="rotate(8.10935 2183.25 1668.45)" fill="#AAAAAA" fill-opacity="0.49"/>
<rect x="2218.58" y="1453.8" width="201.803" height="12.5" transform="rotate(8.10935 2218.58 1453.8)" fill="#AAAAAA" fill-opacity="0.49"/>
<rect x="2187.53" y="1633.12" width="201.803" height="12.5" transform="rotate(8.10935 2187.53 1633.12)" fill="#AAAAAA" fill-opacity="0.49"/>
<rect x="2217.4" y="1804.95" width="126.686" height="56.8122" rx="28.4061" transform="rotate(9.80802 2217.4 1804.95)" fill="#595959" fill-opacity="0.62"/>
<path d="M746.247 3523.13C737.352 3511.56 599.485 3453.7 574.58 3446.58C549.675 3439.45 433.154 3429.66 433.154 3429.66C433.154 3429.66 420.702 3459.04 423.37 3486.64C426.038 3514.23 443.828 3532.04 443.828 3532.04L737.352 3557.85C737.352 3557.85 755.141 3534.71 746.247 3523.13Z" fill="black"/>
<path d="M1559.22 3450.14C1538.76 3438.56 1391.11 3445.68 1391.11 3445.68L1280.82 3477.73C1280.82 3477.73 1272.81 3501.77 1277.26 3530.25C1281.71 3558.74 1306.61 3580.11 1306.61 3580.11L1572.56 3478.62C1572.56 3478.62 1579.68 3461.71 1559.22 3450.14Z" fill="black"/>
<path d="M911.692 2784.26C917.918 2749.54 994.412 2364.08 994.412 2364.08L735.577 2340.94C725.2 2468.83 689.325 2755.06 689.325 2784.26C689.325 2820.76 414.479 3406.52 424.264 3436.78C427.111 3445.59 557.684 3465.27 577.252 3461.71C596.82 3458.15 905.465 2818.98 911.692 2784.26Z" fill="#404040"/>
<path d="M1091.37 2408.59V2356.96L732.704 2338.47C732.704 2338.47 723.204 2357.47 726.704 2392.97L726.799 2393.93C730.206 2428.5 730.38 2430.26 745.363 2462.9C760.484 2495.83 1104.71 2893.76 1112.71 2911.56C1120.72 2929.36 1275.49 3491.09 1275.49 3491.09L1399.12 3446.58C1399.12 3446.58 1312.84 2895.54 1290.61 2835C1268.37 2774.47 1091.37 2408.59 1091.37 2408.59Z" fill="#5B5B5B"/>
<path d="M1544.8 1663.42L1567.48 1680.45L1448.41 1805.29L1425.73 1782.59L1544.8 1663.42Z" fill="black"/>
<path d="M1391.71 1776.92L1346.35 1839.34L1318 1867.71L1329.34 1884.74L1363.36 1907.44L1386.04 1884.74L1493.77 1822.32L1533.46 1725.85H1516.45L1459.75 1793.94H1431.4L1465.42 1759.89L1454.08 1754.22L1391.71 1776.92Z" fill="#FA7A77"/>
<path d="M1091.2 2406.81C1099.92 2400.58 1096.87 2344.39 1096.87 2344.39L1011.82 2310.34L739.655 2304.67C739.655 2304.67 716.141 2367.46 727.704 2375.47C739.267 2383.48 1082.47 2413.04 1091.2 2406.81Z" fill="#7818EE"/>
<path d="M1210.27 1374.01L1238.62 1351.31L1221.61 1283.22L1159.24 1266.19L1102.54 1322.94L1085.53 1408.06L1108.21 1442.11L1181.92 1459.13L1210.27 1456.98V1374.01Z" fill="#FA7A77"/>
<path d="M1057.18 1549.93C1055.29 1555.6 1051.51 1607.81 1051.51 1612.35C1051.51 1612.35 977.795 1589.65 949.445 1566.95C921.095 1544.26 915.425 1464.81 915.425 1464.81L1006.15 1334.29L1091.2 1459.13L1057.18 1549.93Z" fill="#FA7A77"/>
<path d="M1125.22 1555.6L1176.25 1459.13L1108.21 1408.06C1108.21 1408.06 1096.87 1345.64 1119.55 1317.27C1142.23 1288.89 1176.25 1283.22 1176.25 1283.22C1183.81 1283.22 1201.19 1284.35 1210.27 1288.89C1219.34 1293.43 1225.39 1328.62 1227.28 1345.64C1227.28 1345.64 1244.29 1362.66 1266.97 1356.99C1289.65 1351.31 1300.99 1328.62 1300.99 1328.62C1300.99 1328.62 1306.66 1300.24 1306.66 1283.22C1306.66 1266.19 1295.32 1243.49 1278.31 1220.8C1261.3 1198.1 1215.94 1158.37 1215.94 1158.37C1215.94 1158.37 1187.59 1130 1159.24 1130L1091.2 1130C1091.2 1130 1045.84 1135.67 1017.49 1158.37C989.135 1181.07 977.795 1198.1 972.125 1220.8C966.455 1243.49 960.785 1294.57 972.125 1317.27C983.465 1339.96 1011.82 1356.99 1011.82 1356.99L989.135 1402.39C989.135 1402.39 989.135 1419.41 1000.48 1464.81C1011.82 1510.21 1057.18 1555.6 1057.18 1555.6H1125.22Z" fill="#32324E"/>
<path d="M1078.54 1341.38C1078.54 1337.13 1074.32 1320.1 1078.54 1315.85C1082.76 1311.59 1091.2 1311.59 1091.2 1307.34C1091.2 1303.08 1091.2 1294.57 1086.98 1286.06C1082.76 1277.54 1078.54 1277.54 1070.1 1277.54C1061.66 1277.54 1053.22 1281.8 1049 1294.57C1044.78 1307.34 1044.78 1320.1 1049 1328.62C1053.22 1337.13 1063.07 1341.38 1070.1 1345.64C1070.1 1345.64 1078.54 1345.64 1078.54 1341.38Z" fill="#FA7A77"/>
<path d="M932.435 1447.78C977.795 1555.6 1057.18 1578.3 1074.19 1606.68C1091.2 1635.05 1113.88 1788.27 1125.22 1901.76C1136.56 2015.26 1147.9 2293.32 1142.23 2316.02C1136.56 2338.72 1096.87 2361.42 1096.87 2361.42C1096.87 2361.42 1011.82 2333.04 943.775 2327.37C875.735 2321.69 745.325 2327.37 745.325 2327.37C745.325 2327.37 728.315 2327.37 711.305 2304.67C694.295 2281.97 705.635 1879.06 779.345 1663.42C853.055 1447.78 932.435 1447.78 932.435 1447.78Z" fill="#776BFF"/>
<path d="M1352.02 1935.81L1346.35 1958.51L1295.32 1964.18L1261.3 1901.76L1283.98 1862.04L1336.82 1836.49L1386.04 1913.11L1352.02 1935.81Z" fill="#776BFF"/>
<path d="M1028.83 1635.05C1068.52 1697.47 1085.53 1901.76 1102.54 1907.44C1119.55 1913.11 1170.58 1890.41 1232.95 1862.04C1246.53 1855.86 1284.9 1854.05 1295.32 1850.69L1357.69 1947.16C1357.69 1947.16 1318 2043.63 1255.63 2100.38C1193.26 2157.12 1119.55 2151.45 1119.55 2151.45C1119.55 2151.45 1000.48 2140.1 932.436 2032.28C901.202 1982.78 859.545 1907.44 841.716 1816.64C823.888 1725.85 824.242 1653 830.376 1640.72C841.716 1618.03 898.416 1561.28 926.766 1566.95C955.116 1572.63 989.136 1572.63 1028.83 1635.05Z" fill="#7818EE"/>
<defs>
<linearGradient id="paint0_linear" x1="2589.59" y1="1407.2" x2="1638.89" y2="2318.12" gradientUnits="userSpaceOnUse">
<stop offset="0.00142994" stop-color="#FF9391"/>
<stop offset="1" stop-color="#FF7A49"/>
</linearGradient>
<linearGradient id="paint1_linear" x1="2190.23" y1="1212.57" x2="2172.87" y2="1331.34" gradientUnits="userSpaceOnUse">
<stop stop-color="#52D8F6"/>
<stop offset="1" stop-color="#FFE600"/>
</linearGradient>
</defs>
</svg>
