<svg width="1787" height="1787" viewBox="0 0 1787 1787" fill="none" xmlns="http://www.w3.org/2000/svg">
<circle cx="893.5" cy="893.5" r="893.5" fill="#9E4BF5"/>
<path d="M482 1273.1V1041.64L528.006 1087.64L602.766 1012.88V1277.42C602.766 1277.42 599.891 1296.11 584.076 1296.11C568.261 1296.11 523.334 1297.54 505.003 1296.11C486.672 1294.67 482 1273.1 482 1273.1Z" fill="white"/>
<path d="M622.534 1266.95V996.348L705.201 914.399L743.3 955.733V1272.33C743.3 1272.33 740.425 1295.67 724.61 1295.67C708.796 1295.67 663.868 1297.46 645.537 1295.67C627.207 1293.87 622.534 1266.95 622.534 1266.95Z" fill="white"/>
<path d="M762.709 1266.95V965.438L864.785 1070.75L883.475 1055.65V1272.33C883.475 1272.33 880.6 1295.67 864.785 1295.67C848.97 1295.67 804.043 1297.46 785.712 1295.67C767.381 1293.87 762.709 1266.95 762.709 1266.95Z" fill="white"/>
<path d="M902.884 1266.95V1044.87L1023.65 923.744V1272.33C1023.65 1272.33 1020.77 1295.67 1004.96 1295.67C989.145 1295.67 944.217 1297.46 925.887 1295.67C907.556 1293.87 902.884 1266.95 902.884 1266.95Z" fill="white"/>
<path d="M1043.06 1266.95V910.087L1163.82 786.445V1272.34C1163.82 1272.34 1160.95 1295.67 1145.13 1295.67C1129.32 1295.67 1084.39 1297.46 1066.06 1295.67C1047.73 1293.87 1043.06 1266.95 1043.06 1266.95Z" fill="white"/>
<path d="M1183.23 1266.95V770.271L1223.85 730.016L1288.55 791.477L1304 776.381V1272.33C1304 1272.33 1301.13 1295.67 1285.31 1295.67C1269.5 1295.67 1224.57 1297.46 1206.24 1295.67C1187.91 1293.87 1183.23 1266.95 1183.23 1266.95Z" fill="white"/>
<path d="M522.974 1058.17L482 1017.19L703.045 795.071L866.223 958.249L1180 644.473L1103.44 567.916H1296.81V763.083L1220.61 686.885L866.223 1041.28L703.045 878.098L522.974 1058.17Z" fill="white"/>
<path d="M730.721 516.136L752.885 491H972.972L951.743 516.136H730.721Z" fill="white"/>
<path d="M730.721 570.073L752.885 543.89H972.972L954.553 570.073H730.721Z" fill="white"/>
<path d="M742.592 649.365V620.936C742.592 620.936 840.372 638.309 863.176 574.083C885.981 509.857 730.721 516.962 730.721 516.962L752.901 491.165C752.901 491.165 936.902 483.793 911.598 567.501C886.294 651.209 799.135 645.153 799.135 645.153L931.279 777.819H873.798L742.592 649.365Z" fill="white"/>
</svg>
