<svg width="2698" height="1915" viewBox="0 0 2698 1915" fill="none" xmlns="http://www.w3.org/2000/svg">
<path d="M900.771 1179.38C871.271 1150.88 47.2715 1165.38 6.27147 1179.38C-34.7285 1193.37 137.772 1883.87 162.771 1895.38C187.771 1906.88 1036 1928 1055.5 1903.5C1075 1879 930.271 1207.88 900.771 1179.38Z" fill="#C7B1FF"/>
<path d="M39 1132.76C25.5 1141.26 0 1176.76 0 1176.76C0 1176.76 883.5 1173.76 899.5 1176.76C915.5 1179.75 1047 1908.76 1047 1908.76H1600.5V1817.76H1088C1088 1817.76 954 1142.26 942 1132.76C930 1123.25 52.5 1124.26 39 1132.76Z" fill="#694AED"/>
<path d="M434.5 1576.76C400 1539.26 422.5 1450.76 476 1449.76C529.5 1448.76 592.78 1499.76 570.5 1565.76C548.22 1631.76 469 1614.26 434.5 1576.76Z" fill="#694AED"/>
<path d="M1763 218.5L1375 309C1383.83 403.667 1401.5 595.2 1401.5 604C1401.5 612.8 1383.83 791.333 1375 879.5C1411 1027.33 1488.8 1331.8 1512 1367C1535.2 1402.2 1724.33 1419.67 1816 1424L2182 1243.5L2235 961.5L2100.5 544.5L1763 218.5Z" fill="#062034"/>
<path d="M1657.5 888C1665.5 860.5 1670.74 807 1670.74 807C1670.74 807 1698.74 828.5 1798.24 807C1897.74 785.5 1941.24 653 1941.24 653C1941.24 653 1941.24 817 1949.74 888C1958.24 959 1969 1106 1969 1106C1969 1106 1795 1132 1701.5 1125C1608 1118 1572.26 994 1572.26 994C1572.26 994 1649.5 915.5 1657.5 888Z" fill="#EE9974"/>
<path d="M1488.68 582.521C1458.99 493.021 1505.68 270.521 1520.68 273.021C1535.68 275.521 1546.18 310.52 1605.18 347.021C1664.18 383.521 1703.68 414.02 1759.18 430.021C1814.68 446.021 1947.18 512.021 1947.18 512.021C1947.18 512.021 1954.68 665.521 1947.18 681.021C1939.68 696.52 1810.68 922.021 1664.18 839.021C1517.68 756.021 1518.36 672.021 1488.68 582.521Z" fill="#FD9F7B"/>
<path d="M1495 350L1515 273C1515 273 1519.5 315 1644.5 373.5C1769.5 432 1880.5 510 1880.5 510C1880.5 510 1695.5 477.5 1629.5 455C1563.5 432.5 1495 350 1495 350Z" fill="#E68262"/>
<path d="M1657 901.5L1664.5 841.5C1664.5 841.5 1699 867.5 1780 851C1861 834.5 1935.5 713.5 1935.5 713.5V787C1935.5 787 1848 901.5 1780 909C1712 916.5 1657 901.5 1657 901.5Z" fill="#E68262"/>
<path d="M1659.46 426.272C1564.46 395.272 1507.96 296.272 1507.96 296.272C1507.96 296.272 1427.46 290.272 1396.96 365.272C1366.46 440.272 1489.46 670.272 1486.96 734.772C1484.46 799.272 1434.96 794.272 1444.96 907.272C1454.96 1020.27 1569.46 982.272 1576.96 1016.27C1584.46 1050.27 1730.06 1234.67 1728.46 1242.27C1726.86 1249.87 1548.8 1387.44 1459.96 1455.27C1459.96 1455.27 1209.46 1274.77 1235.96 1175.27C1262.46 1075.77 1297.96 1076.27 1306.96 1016.27C1315.96 956.272 1259.96 894.272 1262.96 843.772C1265.96 793.272 1356.96 684.772 1352.96 608.272C1348.96 531.772 1255.46 459.272 1306.96 334.272C1358.46 209.272 1435.96 300.272 1517.46 173.272C1598.96 46.2724 1794.46 -86.7261 2028.96 73.7723C2263.46 234.271 2164.96 413.773 2235.96 485.772C2306.96 557.771 2531.96 561.273 2548.46 673.272C2564.96 785.271 2472.46 795.773 2496.46 865.272C2520.46 934.771 2626.96 1003.77 2659.46 1091.27C2691.96 1178.77 2621.96 1377.27 2511.96 1418.77C2401.96 1460.27 2176.46 1334.27 2176.46 1334.27L2136.46 1016.27C2136.46 1016.27 2138.96 922.772 2111.46 865.272C2083.96 807.772 2033.96 810.272 1984.96 778.772C1935.96 747.272 1967.46 714.272 1959.96 656.272C1952.46 598.272 1867.96 510.772 1867.96 510.772C1867.96 510.772 1754.46 457.272 1659.46 426.272Z" fill="#0E2D4A"/>
<path d="M1316.5 1113C1381 1017 1475.5 968.5 1475.5 968.5C1475.5 968.5 1281 1342.5 1313.5 1479.5C1346 1616.5 1383.5 1622 1383.5 1622L1184.5 1816.5H1087L1038.5 1574.5C1038.5 1574.5 1252 1209 1316.5 1113Z" fill="#35BDEA"/>
<path d="M1771.5 1093C1534 1072.5 1635 869 1654.5 877C1674 885 1590 989.5 1795.5 1013C2001 1036.5 1945.5 866 1945.5 866L2010.5 885C2010.5 885 2009 1113.5 1771.5 1093Z" fill="#35BDEA"/>
<path d="M2159 1803L2201 1462C2201 1462 2191.88 1530 2117.5 1617C2043.12 1704 1844 1712.5 1844 1712.5C1844 1712.5 1586 1712.5 1513 1734.5C1440 1756.5 1403.5 1816.5 1403.5 1816.5H1779.5L2159 1803Z" fill="#35BDEA"/>
<path d="M1301.29 1463C1293.79 1366.5 1434.79 1026.5 1460.79 986C1486.79 945.5 1639 887 1639 887C1639 887 1581.79 1112.5 1811.79 1079.5C2041.79 1046.5 1992.29 881 1992.29 881C1992.29 881 2119.29 918.5 2239.29 999C2359.29 1079.5 2474.79 1315 2474.79 1315C2474.79 1315 2666.29 1614.5 2681.29 1712C2696.29 1809.5 2709.79 1823.5 2675.79 1864.5C2641.79 1905.5 2586.29 1906.5 2586.29 1906.5H1903.29V1872L1869.29 1807H1817.29C1817.29 1807 1822.79 1791.5 1831.29 1783.5C1839.79 1775.5 2359.29 1683.5 2359.29 1683.5L2199.79 1460C2199.79 1460 2161.79 1628 2026.29 1683.5C1890.79 1739 1606.29 1717 1545.29 1726.5C1484.29 1736 1403 1817.5 1403 1817.5L1397.29 1655.5C1397.29 1655.5 1308.79 1559.5 1301.29 1463Z" fill="#38D7FF"/>
<path d="M1901 1831.38C1878 1800.38 1853.5 1806.88 1853.5 1806.88H1767C1767 1806.88 1702 1769.88 1634 1776.88C1566 1783.88 1548.5 1810.88 1517.5 1826.38C1486.5 1841.88 1445 1906.88 1445 1906.88H1901C1901 1906.88 1924 1862.38 1901 1831.38Z" fill="#F9A17B"/>
<path d="M1918.09 537.405C1929.5 471.5 2010.59 445.405 2010.59 445.405C2010.59 445.405 2032.59 260.401 1986.59 167.905C1940.59 75.4086 1882.09 43.8975 1745.09 41.4013C1608.09 38.905 1565.09 127.901 1559.09 113.405C1553.09 98.9088 1655.5 20.0013 1731 16.5005C1806.5 12.9996 1947.59 7.90125 2010.59 153.401C2073.59 298.901 2045.59 454.405 2045.59 454.405C2045.59 454.405 2127 479 2107.09 598.405C2087.19 717.81 1999.5 708.5 1958.09 690.405C1916.69 672.31 1906.69 603.31 1918.09 537.405Z" fill="#C7B1FF"/>
<path d="M1437.09 607.405C1401.09 511.407 1481 454.003 1481 454.003C1481 454.003 1479.5 541.503 1490.5 586.003C1501.5 630.503 1523.5 693.003 1523.5 693.003C1523.5 693.003 1473.09 703.403 1437.09 607.405Z" fill="#C7B1FF"/>
<path d="M2021.13 476.045C1989.13 477.55 1943.63 506.041 1943.63 579.545C1943.63 653.049 1990.63 670.55 2021.13 670.045C2051.63 669.54 2086.13 645.545 2089.13 579.545C2092.13 513.545 2053.13 474.54 2021.13 476.045Z" fill="#694AED"/>
<path d="M1958.5 691.003L1940.5 682.503C1940.5 682.503 1895.13 731.045 1853.63 744.545C1812.13 758.045 1736.13 766.545 1736.13 766.545C1736.13 766.545 1729.63 735.041 1678.63 731.045C1627.63 727.049 1622.13 766.545 1622.13 766.545C1622.13 766.545 1617.13 807.049 1670.13 811.045C1723.13 815.041 1736.13 785.045 1736.13 785.045C1736.13 785.045 1800.63 780.049 1853.63 766.545C1906.63 753.041 1958.5 691.003 1958.5 691.003Z" fill="#694AED"/>
</svg>
