<svg width="5038" height="4873" viewBox="0 0 5038 4873" fill="none" xmlns="http://www.w3.org/2000/svg">
<path d="M4778.4 4502L4800.33 4321.29H4654.12L4690.67 4502H4778.4Z" fill="#450C8B"/>
<path d="M3937.7 4495.05L3959.63 4328.24H3820.73L3842.66 4495.05H3937.7Z" fill="#450C8B"/>
<path d="M2102.78 4502L2117.4 4328.24H1971.19L2000.43 4502H2102.78Z" fill="#450C8B"/>
<path d="M2285.8 4495.05L2292.94 4328.24H2193.08L2209.73 4495.05H2285.8Z" fill="#450C8B"/>
<path d="M4841.41 0.000732422C4929.87 0.000732422 4949.52 107.012 4951.98 156.603C4954.44 1375.49 4959.35 3844.59 4959.35 4063.83C4959.35 4283.07 4861.07 4327.44 4811.93 4322.22H3757.84L3720.99 0.000732422H4841.41Z" fill="#9E4BF5"/>
<path d="M1848.7 3.45873C2583.36 0.848691 4060.06 -2.80536 4089.55 3.45873C4183.9 3.45873 4197.66 102.64 4192.74 152.231L4207.49 4082.95C4207.49 4295.93 4074.8 4333.51 4008.46 4325.68C3175.52 4330.9 2186.3 4341.34 1974.01 4341.34C1761.72 4341.34 1718.47 4163.86 1723.38 4075.12C1728.3 2788.37 1738.13 197.646 1738.13 128.741C1738.13 59.8359 1811.84 16.509 1848.7 3.45873Z" fill="url(#paint0_linear)"/>
<path d="M3999.05 63.0706C4091.28 63.0706 4107.35 138.019 4103.85 175.493V3342.06C4103.85 3379.53 4086.39 3395.15 4061.93 3398.27H1903.05C1835.98 3398.27 1819.21 3335.81 1819.21 3304.58V147.387C1819.21 72.4392 1882.09 59.9478 1913.53 63.0706H3999.05Z" fill="#270051"/>
<path d="M1716.01 3993.36H4959.35V4071.66H1716.01V3993.36Z" fill="#791AEF"/>
<path d="M3602.54 801.91H3871.46C3871.46 801.91 3883.15 764.65 3883.15 634.238C3883.15 503.826 3871.46 466.566 3871.46 466.566H3602.54C3602.54 466.566 3590.84 503.826 3590.84 634.238C3590.84 764.65 3602.54 801.91 3602.54 801.91Z" fill="url(#paint1_linear)"/>
<path d="M3883.15 491.407V454.146H3590.84V491.407H3883.15Z" fill="#80FC06"/>
<path d="M3883.15 814.331V777.071H3590.84V814.331H3883.15Z" fill="#80FC06"/>
<ellipse rx="75.9998" ry="80.7312" transform="matrix(-1 0 0 1 3737 634.239)" fill="#79FF00"/>
<path d="M3791.65 615.05C3817.84 615.05 3838.79 645.755 3838.79 645.755L3827.16 656.67C3827.16 656.67 3810.82 635.304 3791.65 633.362C3772.49 631.42 3747.65 658.613 3706.23 670.267C3664.82 681.921 3631.69 621.708 3631.69 621.708L3645.01 608.909C3645.01 608.909 3676.44 658.037 3707.86 645.755C3739.28 633.473 3765.47 615.05 3791.65 615.05Z" fill="white"/>
<path d="M3602.54 2146.99H3871.46C3871.46 2146.99 3883.15 2109.73 3883.15 1979.32C3883.15 1848.91 3871.46 1811.65 3871.46 1811.65H3602.54C3602.54 1811.65 3590.84 1848.91 3590.84 1979.32C3590.84 2109.73 3602.54 2146.99 3602.54 2146.99Z" fill="url(#paint2_linear)"/>
<path d="M3883.15 1836.49V1799.23H3590.84V1836.49H3883.15Z" fill="#FF5C00"/>
<path d="M3883.15 2159.41V2122.15H3590.84V2159.41H3883.15Z" fill="#FF5C00"/>
<ellipse rx="75.9998" ry="80.7312" transform="matrix(-1 0 0 1 3737 1979.32)" fill="#FF6B00"/>
<path d="M3791.65 1960.13C3817.84 1960.13 3838.79 1990.84 3838.79 1990.84L3827.16 2001.75C3827.16 2001.75 3810.82 1980.39 3791.65 1978.45C3772.49 1976.5 3747.65 2003.7 3706.23 2015.35C3664.82 2027 3631.69 1966.79 3631.69 1966.79L3645.01 1953.99C3645.01 1953.99 3676.44 2003.12 3707.86 1990.84C3739.28 1978.56 3765.47 1960.13 3791.65 1960.13Z" fill="white"/>
<path d="M3288.21 2146.99H3557.13C3557.13 2146.99 3568.82 2109.73 3568.82 1979.32C3568.82 1848.91 3557.13 1811.65 3557.13 1811.65H3288.21C3288.21 1811.65 3276.51 1848.91 3276.51 1979.32C3276.51 2109.73 3288.21 2146.99 3288.21 2146.99Z" fill="url(#paint3_linear)"/>
<path d="M3568.82 1836.49V1799.23H3276.51V1836.49H3568.82Z" fill="#FF5C00"/>
<path d="M3568.82 2159.41V2122.15H3276.51V2159.41H3568.82Z" fill="#FF5C00"/>
<ellipse rx="75.9998" ry="80.7312" transform="matrix(-1 0 0 1 3422.67 1979.32)" fill="#FF6B00"/>
<path d="M3477.32 1960.13C3503.51 1960.13 3524.46 1990.84 3524.46 1990.84L3512.83 2001.75C3512.83 2001.75 3496.48 1980.39 3477.32 1978.45C3458.16 1976.5 3433.31 2003.7 3391.9 2015.35C3350.49 2027 3317.36 1966.79 3317.36 1966.79L3330.68 1953.99C3330.68 1953.99 3362.1 2003.12 3393.53 1990.84C3424.95 1978.56 3451.14 1960.13 3477.32 1960.13Z" fill="white"/>
<path d="M2973.88 2146.99H3242.8C3242.8 2146.99 3254.49 2109.73 3254.49 1979.32C3254.49 1848.91 3242.8 1811.65 3242.8 1811.65H2973.88C2973.88 1811.65 2962.18 1848.91 2962.18 1979.32C2962.18 2109.73 2973.88 2146.99 2973.88 2146.99Z" fill="url(#paint4_linear)"/>
<path d="M3254.49 1836.49V1799.23H2962.18V1836.49H3254.49Z" fill="#FF5C00"/>
<path d="M3254.49 2159.41V2122.15H2962.18V2159.41H3254.49Z" fill="#FF5C00"/>
<ellipse rx="75.9998" ry="80.7312" transform="matrix(-1 0 0 1 3108.34 1979.32)" fill="#FF6B00"/>
<path d="M3162.99 1960.13C3189.18 1960.13 3210.13 1990.84 3210.13 1990.84L3198.5 2001.75C3198.5 2001.75 3182.15 1980.39 3162.99 1978.45C3143.83 1976.5 3118.98 2003.7 3077.57 2015.35C3036.16 2027 3003.03 1966.79 3003.03 1966.79L3016.35 1953.99C3016.35 1953.99 3047.77 2003.12 3079.2 1990.84C3110.62 1978.56 3136.81 1960.13 3162.99 1960.13Z" fill="white"/>
<path d="M2659.54 2146.99H2928.47C2928.47 2146.99 2940.16 2109.73 2940.16 1979.32C2940.16 1848.91 2928.47 1811.65 2928.47 1811.65H2659.54C2659.54 1811.65 2647.85 1848.91 2647.85 1979.32C2647.85 2109.73 2659.54 2146.99 2659.54 2146.99Z" fill="url(#paint5_linear)"/>
<path d="M2940.16 1836.49V1799.23H2647.85V1836.49H2940.16Z" fill="#FF5C00"/>
<path d="M2940.16 2159.41V2122.15H2647.85V2159.41H2940.16Z" fill="#FF5C00"/>
<ellipse rx="75.9998" ry="80.7312" transform="matrix(-1 0 0 1 2794.01 1979.32)" fill="#FF6B00"/>
<path d="M2848.66 1960.13C2874.85 1960.13 2895.8 1990.84 2895.8 1990.84L2884.17 2001.75C2884.17 2001.75 2867.82 1980.39 2848.66 1978.45C2829.5 1976.5 2804.65 2003.7 2763.24 2015.35C2721.83 2027 2688.7 1966.79 2688.7 1966.79L2702.02 1953.99C2702.02 1953.99 2733.44 2003.12 2764.87 1990.84C2796.29 1978.56 2822.48 1960.13 2848.66 1960.13Z" fill="white"/>
<path d="M2345.21 2146.99H2614.13C2614.13 2146.99 2625.83 2109.73 2625.83 1979.32C2625.83 1848.91 2614.13 1811.65 2614.13 1811.65H2345.21C2345.21 1811.65 2333.52 1848.91 2333.52 1979.32C2333.52 2109.73 2345.21 2146.99 2345.21 2146.99Z" fill="url(#paint6_linear)"/>
<path d="M2625.82 1836.49V1799.23H2333.52V1836.49H2625.82Z" fill="#FF5C00"/>
<path d="M2625.83 2159.41V2122.15H2333.52V2159.41H2625.83Z" fill="#FF5C00"/>
<ellipse rx="75.9998" ry="80.7312" transform="matrix(-1 0 0 1 2479.67 1979.32)" fill="#FF6B00"/>
<path d="M2534.33 1960.13C2560.51 1960.13 2581.46 1990.84 2581.46 1990.84L2569.83 2001.75C2569.83 2001.75 2553.49 1980.39 2534.33 1978.45C2515.17 1976.5 2490.32 2003.7 2448.91 2015.35C2407.49 2027 2374.36 1966.79 2374.36 1966.79L2387.69 1953.99C2387.69 1953.99 2419.11 2003.12 2450.53 1990.84C2481.96 1978.56 2508.14 1960.13 2534.33 1960.13Z" fill="white"/>
<path d="M2030.88 2146.99H2299.8C2299.8 2146.99 2311.5 2109.73 2311.5 1979.32C2311.5 1848.91 2299.8 1811.65 2299.8 1811.65H2030.88C2030.88 1811.65 2019.19 1848.91 2019.19 1979.32C2019.19 2109.73 2030.88 2146.99 2030.88 2146.99Z" fill="url(#paint7_linear)"/>
<path d="M2311.49 1836.49V1799.23H2019.19V1836.49H2311.49Z" fill="#FF5C00"/>
<path d="M2311.5 2159.41V2122.15H2019.19V2159.41H2311.5Z" fill="#FF5C00"/>
<ellipse rx="75.9998" ry="80.7312" transform="matrix(-1 0 0 1 2165.34 1979.32)" fill="#FF6B00"/>
<path d="M2220 1960.13C2246.18 1960.13 2267.13 1990.84 2267.13 1990.84L2255.5 2001.75C2255.5 2001.75 2239.16 1980.39 2220 1978.45C2200.84 1976.5 2175.99 2003.7 2134.58 2015.35C2093.16 2027 2060.03 1966.79 2060.03 1966.79L2073.36 1953.99C2073.36 1953.99 2104.78 2003.12 2136.2 1990.84C2167.63 1978.56 2193.81 1960.13 2220 1960.13Z" fill="white"/>
<path d="M3288.21 803.463H3557.13C3557.13 803.463 3568.82 766.203 3568.82 635.791C3568.82 505.379 3557.13 468.119 3557.13 468.119H3288.21C3288.21 468.119 3276.51 505.379 3276.51 635.791C3276.51 766.203 3288.21 803.463 3288.21 803.463Z" fill="url(#paint8_linear)"/>
<path d="M3568.82 492.96V455.699H3276.51V492.96H3568.82Z" fill="#80FC06"/>
<path d="M3568.82 815.884V778.623H3276.51V815.884H3568.82Z" fill="#80FC06"/>
<ellipse rx="75.9998" ry="80.7312" transform="matrix(-1 0 0 1 3422.67 635.792)" fill="#79FF00"/>
<path d="M3477.32 616.603C3503.51 616.603 3524.46 647.308 3524.46 647.308L3512.83 658.223C3512.83 658.223 3496.48 636.857 3477.32 634.915C3458.16 632.972 3433.31 660.166 3391.9 671.82C3350.49 683.474 3317.36 623.261 3317.36 623.261L3330.68 610.462C3330.68 610.462 3362.1 659.59 3393.53 647.308C3424.95 635.026 3451.14 616.603 3477.32 616.603Z" fill="white"/>
<path d="M2973.88 805.018H3242.8C3242.8 805.018 3254.49 767.757 3254.49 637.346C3254.49 506.934 3242.8 469.673 3242.8 469.673H2973.88C2973.88 469.673 2962.18 506.934 2962.18 637.346C2962.18 767.757 2973.88 805.018 2973.88 805.018Z" fill="url(#paint9_linear)"/>
<path d="M3254.49 494.514V457.253H2962.18V494.514H3254.49Z" fill="#80FC06"/>
<path d="M3254.49 817.438V780.177H2962.18V817.438H3254.49Z" fill="#80FC06"/>
<ellipse rx="75.9998" ry="80.7312" transform="matrix(-1 0 0 1 3108.34 637.347)" fill="#79FF00"/>
<path d="M3162.99 618.157C3189.18 618.157 3210.13 648.862 3210.13 648.862L3198.5 659.778C3198.5 659.778 3182.15 638.412 3162.99 636.469C3143.83 634.527 3118.98 661.72 3077.57 673.374C3036.16 685.029 3003.03 624.815 3003.03 624.815L3016.35 612.016C3016.35 612.016 3047.77 661.144 3079.2 648.862C3110.62 636.58 3136.81 618.157 3162.99 618.157Z" fill="white"/>
<path d="M2659.54 806.571H2928.46C2928.46 806.571 2940.16 769.31 2940.16 638.898C2940.16 508.487 2928.46 471.226 2928.46 471.226H2659.54C2659.54 471.226 2647.85 508.487 2647.85 638.898C2647.85 769.31 2659.54 806.571 2659.54 806.571Z" fill="url(#paint10_linear)"/>
<path d="M2940.16 496.067V458.807H2647.85V496.067H2940.16Z" fill="#80FC06"/>
<path d="M2940.16 818.992V781.731H2647.85V818.992H2940.16Z" fill="#80FC06"/>
<ellipse rx="75.9998" ry="80.7312" transform="matrix(-1 0 0 1 2794 638.9)" fill="#79FF00"/>
<path d="M2848.66 619.711C2874.85 619.711 2895.79 650.415 2895.79 650.415L2884.16 661.331C2884.16 661.331 2867.82 639.965 2848.66 638.023C2829.5 636.08 2804.65 663.273 2763.24 674.928C2721.82 686.582 2688.69 626.369 2688.69 626.369L2702.02 613.57C2702.02 613.57 2733.44 662.697 2764.86 650.415C2796.29 638.134 2822.47 619.711 2848.66 619.711Z" fill="white"/>
<path d="M2345.21 808.126H2614.13C2614.13 808.126 2625.82 770.866 2625.82 640.454C2625.82 510.042 2614.13 472.781 2614.13 472.781H2345.21C2345.21 472.781 2333.52 510.042 2333.52 640.454C2333.52 770.866 2345.21 808.126 2345.21 808.126Z" fill="url(#paint11_linear)"/>
<path d="M2625.82 497.622V460.361H2333.52V497.622H2625.82Z" fill="#80FC06"/>
<path d="M2625.82 820.547V783.286H2333.52V820.547H2625.82Z" fill="#80FC06"/>
<ellipse rx="75.9998" ry="80.7312" transform="matrix(-1 0 0 1 2479.67 640.455)" fill="#79FF00"/>
<path d="M2534.33 621.266C2560.51 621.266 2581.46 651.971 2581.46 651.971L2569.83 662.886C2569.83 662.886 2553.49 641.52 2534.33 639.578C2515.17 637.636 2490.32 664.829 2448.91 676.483C2407.49 688.137 2374.36 627.924 2374.36 627.924L2387.68 615.125C2387.68 615.125 2419.11 664.253 2450.53 651.971C2481.95 639.689 2508.14 621.266 2534.33 621.266Z" fill="white"/>
<path d="M2030.88 809.679H2299.8C2299.8 809.679 2311.49 772.419 2311.49 642.007C2311.49 511.595 2299.8 474.334 2299.8 474.334H2030.88C2030.88 474.334 2019.19 511.595 2019.19 642.007C2019.19 772.419 2030.88 809.679 2030.88 809.679Z" fill="url(#paint12_linear)"/>
<path d="M2311.49 499.175V461.915H2019.19V499.175H2311.49Z" fill="#80FC06"/>
<path d="M2311.49 822.099V784.839H2019.19V822.099H2311.49Z" fill="#80FC06"/>
<ellipse rx="75.9998" ry="80.7312" transform="matrix(-1 0 0 1 2165.34 642.008)" fill="#79FF00"/>
<path d="M2220 622.818C2246.18 622.818 2267.13 653.523 2267.13 653.523L2255.5 664.439C2255.5 664.439 2239.16 643.073 2220 641.131C2200.83 639.188 2175.99 666.381 2134.57 678.036C2093.16 689.69 2060.03 629.476 2060.03 629.476L2073.35 616.677C2073.35 616.677 2104.78 665.805 2136.2 653.523C2167.62 641.241 2193.81 622.818 2220 622.818Z" fill="white"/>
<path d="M1899.39 814.332H4009.37C4009.37 814.332 4030.58 822.162 4030.58 837.822C4030.58 853.483 4009.37 861.313 4009.37 861.313H1899.39C1899.39 861.313 1878.18 853.483 1878.18 837.822C1878.18 822.162 1899.39 814.332 1899.39 814.332Z" fill="#B904A9"/>
<path d="M3743.12 689.05C3853.69 689.05 3868.41 821.046 3868.41 821.046H3849.88C3849.88 821.046 3843.46 707.121 3743.12 707.121C3642.78 707.121 3627.99 823.01 3627.99 823.01H3609.5C3609.5 823.01 3632.55 689.05 3743.12 689.05Z" fill="#B904A9"/>
<path d="M3425.04 689.05C3535.61 689.05 3550.33 821.046 3550.33 821.046H3531.8C3531.8 821.046 3525.38 707.121 3425.04 707.121C3324.7 707.121 3309.91 823.01 3309.91 823.01H3291.42C3291.42 823.01 3314.48 689.05 3425.04 689.05Z" fill="#B904A9"/>
<path d="M3106.96 689.05C3217.53 689.05 3232.25 821.046 3232.25 821.046H3213.73C3213.73 821.046 3207.3 707.121 3106.96 707.121C3006.63 707.121 2991.83 823.01 2991.83 823.01H2973.34C2973.34 823.01 2996.4 689.05 3106.96 689.05Z" fill="#B904A9"/>
<path d="M2788.88 689.05C2899.45 689.05 2914.17 821.046 2914.17 821.046H2895.65C2895.65 821.046 2889.22 707.121 2788.88 707.121C2688.55 707.121 2673.75 823.01 2673.75 823.01H2655.26C2655.26 823.01 2678.32 689.05 2788.88 689.05Z" fill="#B904A9"/>
<path d="M2470.8 689.05C2581.37 689.05 2596.09 821.046 2596.09 821.046H2577.56C2577.56 821.046 2571.14 707.121 2470.8 707.121C2370.46 707.121 2355.67 823.01 2355.67 823.01H2337.18C2337.18 823.01 2360.24 689.05 2470.8 689.05Z" fill="#B904A9"/>
<path d="M2152.72 689.05C2263.29 689.05 2278.01 821.046 2278.01 821.046H2259.48C2259.48 821.046 2253.06 707.121 2152.72 707.121C2052.38 707.121 2037.59 823.01 2037.59 823.01H2019.1C2019.1 823.01 2042.15 689.05 2152.72 689.05Z" fill="#B904A9"/>
<path d="M3784.55 997.372V955.272H3678.86V997.372H3784.55Z" fill="#E52C87"/>
<path d="M3817.58 1151.74L3771.34 997.372H3692.08L3645.84 1151.74H3817.58Z" fill="white"/>
<path d="M3824.18 1467.48V1151.74H3639.23V1474.5C3639.23 1485.73 3652.44 1493.21 3659.05 1495.55H3797.76C3818.9 1495.55 3824.18 1476.84 3824.18 1467.48Z" fill="#E52C87"/>
<path d="M3784.55 2332.38V2290.28H3678.86V2332.38H3784.55Z" fill="#62F900"/>
<path d="M3817.58 2486.75L3771.34 2332.38H3692.08L3645.84 2486.75H3817.58Z" fill="white"/>
<path d="M3824.18 2802.5V2486.75H3639.23V2809.51C3639.23 2820.74 3652.44 2828.22 3659.05 2830.56H3797.76C3818.9 2830.56 3824.18 2811.85 3824.18 2802.5Z" fill="#62F900"/>
<path d="M3473.72 2332.38V2290.29H3368.03V2332.38H3473.72Z" fill="#62F900"/>
<path d="M3506.75 2486.75L3460.51 2332.38H3381.24L3335.01 2486.75H3506.75Z" fill="white"/>
<path d="M3513.35 2802.5V2486.75H3328.4V2809.51C3328.4 2820.74 3341.61 2828.22 3348.22 2830.56H3486.93C3508.07 2830.56 3513.35 2811.85 3513.35 2802.5Z" fill="#62F900"/>
<path d="M3163.07 2332.38V2290.28H3057.38V2332.38H3163.07Z" fill="#62F900"/>
<path d="M3196.1 2486.75L3149.86 2332.38H3070.59L3024.36 2486.75H3196.1Z" fill="white"/>
<path d="M3202.7 2802.5V2486.75H3017.75V2809.51C3017.75 2820.74 3030.96 2828.22 3037.56 2830.56H3176.28C3197.41 2830.56 3202.7 2811.85 3202.7 2802.5Z" fill="#62F900"/>
<path d="M2852.42 2332.38V2290.28H2746.73V2332.38H2852.42Z" fill="#62F900"/>
<path d="M2885.44 2486.75L2839.21 2332.38H2759.94L2713.7 2486.75H2885.44Z" fill="white"/>
<path d="M2892.05 2802.5V2486.75H2707.1V2809.51C2707.1 2820.74 2720.31 2828.22 2726.91 2830.56H2865.63C2886.76 2830.56 2892.05 2811.85 2892.05 2802.5Z" fill="#62F900"/>
<path d="M2541.77 2332.38V2290.28H2436.08V2332.38H2541.77Z" fill="#62F900"/>
<path d="M2574.79 2486.75L2528.56 2332.38H2449.29L2403.05 2486.75H2574.79Z" fill="white"/>
<path d="M2581.4 2802.5V2486.75H2396.45V2809.51C2396.45 2820.74 2409.66 2828.22 2416.26 2830.56H2554.98C2576.11 2830.56 2581.4 2811.85 2581.4 2802.5Z" fill="#62F900"/>
<path d="M2231.12 2332.38V2290.28H2125.43V2332.38H2231.12Z" fill="#62F900"/>
<path d="M2264.14 2486.75L2217.91 2332.38H2138.64L2092.4 2486.75H2264.14Z" fill="white"/>
<path d="M2270.75 2802.5V2486.75H2085.8V2809.51C2085.8 2820.74 2099.01 2828.22 2105.61 2830.56H2244.33C2265.46 2830.56 2270.75 2811.85 2270.75 2802.5Z" fill="#62F900"/>
<path d="M3474.96 997.372V955.272H3369.28V997.372H3474.96Z" fill="#E52C87"/>
<path d="M3507.99 1151.74L3461.75 997.372H3382.49L3336.25 1151.74H3507.99Z" fill="white"/>
<path d="M3514.59 1467.48V1151.74H3329.64V1474.5C3329.64 1485.73 3342.85 1493.21 3349.46 1495.55H3488.17C3509.31 1495.55 3514.59 1476.84 3514.59 1467.48Z" fill="#E52C87"/>
<path d="M3165.37 997.372V955.272H3059.68V997.372H3165.37Z" fill="#E52C87"/>
<path d="M3198.4 1151.74L3152.16 997.372H3072.9L3026.66 1151.74H3198.4Z" fill="white"/>
<path d="M3205 1467.48V1151.74H3020.05V1474.5C3020.05 1485.73 3033.26 1493.21 3039.87 1495.55H3178.58C3199.72 1495.55 3205 1476.84 3205 1467.48Z" fill="#E52C87"/>
<path d="M2855.78 997.372V955.272H2750.09V997.372H2855.78Z" fill="#E52C87"/>
<path d="M2888.81 1151.74L2842.57 997.372H2763.3L2717.07 1151.74H2888.81Z" fill="white"/>
<path d="M2895.41 1467.48V1151.74H2710.46V1474.5C2710.46 1485.73 2723.67 1493.21 2730.27 1495.55H2868.99C2890.12 1495.55 2895.41 1476.84 2895.41 1467.48Z" fill="#E52C87"/>
<path d="M2546.19 997.372V955.272H2440.5V997.372H2546.19Z" fill="#E52C87"/>
<path d="M2579.22 1151.74L2532.98 997.372H2453.71L2407.48 1151.74H2579.22Z" fill="white"/>
<path d="M2585.82 1467.48V1151.74H2400.87V1474.5C2400.87 1485.73 2414.08 1493.21 2420.68 1495.55H2559.4C2580.54 1495.55 2585.82 1476.84 2585.82 1467.48Z" fill="#E52C87"/>
<path d="M2232 997.372V955.272H2126.31V997.372H2232Z" fill="#E52C87" stroke="black"/>
<path d="M2269.62 1151.74L2223.38 997.372H2144.12L2097.88 1151.74H2269.62Z" fill="white"/>
<path d="M2276.23 1467.48V1151.74H2091.28V1474.5C2091.28 1485.73 2104.49 1493.21 2111.09 1495.55H2249.81C2270.94 1495.55 2276.23 1476.84 2276.23 1467.48Z" fill="#E52C87"/>
<path d="M1899.39 1487.72H4009.37C4009.37 1487.72 4030.58 1495.55 4030.58 1511.21C4030.58 1526.87 4009.37 1534.7 4009.37 1534.7H1899.39C1899.39 1534.7 1878.18 1526.87 1878.18 1511.21C1878.18 1495.55 1899.39 1487.72 1899.39 1487.72Z" fill="#B904A9"/>
<path d="M3743.13 1355.31C3853.69 1355.31 3868.41 1487.31 3868.41 1487.31H3849.89C3849.89 1487.31 3843.46 1373.39 3743.13 1373.39C3642.79 1373.39 3627.99 1489.27 3627.99 1489.27H3609.5C3609.5 1489.27 3632.56 1355.31 3743.13 1355.31Z" fill="#B904A9"/>
<path d="M3425.04 1355.31C3535.61 1355.31 3550.33 1487.31 3550.33 1487.31H3531.81C3531.81 1487.31 3525.38 1373.39 3425.04 1373.39C3324.71 1373.39 3309.91 1489.27 3309.91 1489.27H3291.42C3291.42 1489.27 3314.48 1355.31 3425.04 1355.31Z" fill="#B904A9"/>
<path d="M3106.96 1355.31C3217.53 1355.31 3232.25 1487.31 3232.25 1487.31H3213.73C3213.73 1487.31 3207.3 1373.39 3106.96 1373.39C3006.62 1373.39 2991.83 1489.27 2991.83 1489.27H2973.34C2973.34 1489.27 2996.4 1355.31 3106.96 1355.31Z" fill="#B904A9"/>
<path d="M2788.89 1355.31C2899.45 1355.31 2914.17 1487.31 2914.17 1487.31H2895.65C2895.65 1487.31 2889.23 1373.39 2788.89 1373.39C2688.55 1373.39 2673.75 1489.27 2673.75 1489.27H2655.26C2655.26 1489.27 2678.32 1355.31 2788.89 1355.31Z" fill="#B904A9"/>
<path d="M2470.8 1355.31C2581.37 1355.31 2596.09 1487.31 2596.09 1487.31H2577.57C2577.57 1487.31 2571.14 1373.39 2470.8 1373.39C2370.47 1373.39 2355.67 1489.27 2355.67 1489.27H2337.18C2337.18 1489.27 2360.24 1355.31 2470.8 1355.31Z" fill="#B904A9"/>
<path d="M2152.72 1355.31C2263.29 1355.31 2278.01 1487.31 2278.01 1487.31H2259.49C2259.49 1487.31 2253.06 1373.39 2152.72 1373.39C2052.39 1373.39 2037.59 1489.27 2037.59 1489.27H2019.1C2019.1 1489.27 2042.16 1355.31 2152.72 1355.31Z" fill="#B904A9"/>
<path d="M1899.39 2161.11H4009.37C4009.37 2161.11 4030.58 2168.94 4030.58 2184.6C4030.58 2200.26 4009.37 2208.09 4009.37 2208.09H1899.39C1899.39 2208.09 1878.18 2200.26 1878.18 2184.6C1878.18 2168.94 1899.39 2161.11 1899.39 2161.11Z" fill="#B904A9"/>
<path d="M3743.13 2027.08C3853.69 2027.08 3868.41 2159.07 3868.41 2159.07H3849.89C3849.89 2159.07 3843.46 2045.15 3743.13 2045.15C3642.79 2045.15 3627.99 2161.04 3627.99 2161.04H3609.5C3609.5 2161.04 3632.56 2027.08 3743.13 2027.08Z" fill="#B904A9"/>
<path d="M3425.05 2027.08C3535.62 2027.08 3550.33 2159.07 3550.33 2159.07H3531.81C3531.81 2159.07 3525.39 2045.15 3425.05 2045.15C3324.71 2045.15 3309.92 2161.04 3309.92 2161.04H3291.42C3291.42 2161.04 3314.48 2027.08 3425.05 2027.08Z" fill="#B904A9"/>
<path d="M3106.97 2027.08C3217.54 2027.08 3232.25 2159.07 3232.25 2159.07H3213.73C3213.73 2159.07 3207.31 2045.15 3106.97 2045.15C3006.63 2045.15 2991.83 2161.04 2991.83 2161.04H2973.34C2973.34 2161.04 2996.4 2027.08 3106.97 2027.08Z" fill="#B904A9"/>
<path d="M2788.89 2027.08C2899.45 2027.08 2914.17 2159.07 2914.17 2159.07H2895.65C2895.65 2159.07 2889.23 2045.15 2788.89 2045.15C2688.55 2045.15 2673.75 2161.04 2673.75 2161.04H2655.26C2655.26 2161.04 2678.32 2027.08 2788.89 2027.08Z" fill="#B904A9"/>
<path d="M2470.8 2027.08C2581.37 2027.08 2596.09 2159.07 2596.09 2159.07H2577.57C2577.57 2159.07 2571.14 2045.15 2470.8 2045.15C2370.47 2045.15 2355.67 2161.04 2355.67 2161.04H2337.18C2337.18 2161.04 2360.24 2027.08 2470.8 2027.08Z" fill="#B904A9"/>
<path d="M2152.72 2027.08C2263.29 2027.08 2278.01 2159.07 2278.01 2159.07H2259.49C2259.49 2159.07 2253.06 2045.15 2152.72 2045.15C2052.39 2045.15 2037.59 2161.04 2037.59 2161.04H2019.1C2019.1 2161.04 2042.16 2027.08 2152.72 2027.08Z" fill="#B904A9"/>
<path d="M1899.39 2834.5H4009.37C4009.37 2834.5 4030.58 2842.33 4030.58 2857.99C4030.58 2873.65 4009.37 2881.48 4009.37 2881.48H1899.39C1899.39 2881.48 1878.18 2873.65 1878.18 2857.99C1878.18 2842.33 1899.39 2834.5 1899.39 2834.5Z" fill="#B904A9"/>
<path d="M3743.13 2698.84C3853.69 2698.84 3868.41 2830.84 3868.41 2830.84H3849.89C3849.89 2830.84 3843.46 2716.91 3743.13 2716.91C3642.79 2716.91 3627.99 2832.8 3627.99 2832.8H3609.5C3609.5 2832.8 3632.56 2698.84 3743.13 2698.84Z" fill="#B904A9"/>
<path d="M3425.05 2698.84C3535.62 2698.84 3550.33 2830.84 3550.33 2830.84H3531.81C3531.81 2830.84 3525.39 2716.91 3425.05 2716.91C3324.71 2716.91 3309.92 2832.8 3309.92 2832.8H3291.42C3291.42 2832.8 3314.48 2698.84 3425.05 2698.84Z" fill="#B904A9"/>
<path d="M3106.97 2698.84C3217.54 2698.84 3232.25 2830.84 3232.25 2830.84H3213.73C3213.73 2830.84 3207.31 2716.91 3106.97 2716.91C3006.63 2716.91 2991.83 2832.8 2991.83 2832.8H2973.34C2973.34 2832.8 2996.4 2698.84 3106.97 2698.84Z" fill="#B904A9"/>
<path d="M2788.89 2698.84C2899.45 2698.84 2914.17 2830.84 2914.17 2830.84H2895.65C2895.65 2830.84 2889.23 2716.91 2788.89 2716.91C2688.55 2716.91 2673.75 2832.8 2673.75 2832.8H2655.26C2655.26 2832.8 2678.32 2698.84 2788.89 2698.84Z" fill="#B904A9"/>
<path d="M2470.8 2698.84C2581.37 2698.84 2596.09 2830.84 2596.09 2830.84H2577.57C2577.57 2830.84 2571.14 2716.91 2470.8 2716.91C2370.47 2716.91 2355.67 2832.8 2355.67 2832.8H2337.18C2337.18 2832.8 2360.24 2698.84 2470.8 2698.84Z" fill="#B904A9"/>
<path d="M2152.72 2698.84C2263.29 2698.84 2278.01 2830.84 2278.01 2830.84H2259.49C2259.49 2830.84 2253.06 2716.91 2152.72 2716.91C2052.39 2716.91 2037.59 2832.8 2037.59 2832.8H2019.1C2019.1 2832.8 2042.16 2698.84 2152.72 2698.84Z" fill="#B904A9"/>
<rect width="1153.84" height="326.061" rx="14" transform="matrix(-1 0 0 1 3491.16 3551.32)" fill="url(#paint13_linear)"/>
<path d="M2733.94 3666.64C2745.14 3662.84 2756.74 3660.94 2768.74 3660.94C2780.74 3660.94 2790.69 3663.49 2798.59 3668.59C2806.49 3673.69 2810.44 3681.49 2810.44 3691.99C2810.44 3702.49 2806.74 3711.34 2799.34 3718.54C2791.94 3725.64 2783.04 3729.19 2772.64 3729.19C2765.04 3729.19 2761.24 3726.29 2761.24 3720.49C2761.24 3718.69 2761.59 3716.79 2762.29 3714.79C2764.99 3715.49 2767.44 3715.84 2769.64 3715.84C2776.54 3715.84 2781.74 3713.94 2785.24 3710.14C2788.84 3706.34 2790.64 3701.09 2790.64 3694.39C2790.64 3687.59 2788.74 3682.54 2784.94 3679.24C2781.14 3675.94 2775.84 3674.29 2769.04 3674.29C2765.54 3674.29 2761.29 3674.89 2756.29 3676.09C2755.49 3688.39 2755.09 3699.29 2755.09 3708.79C2755.09 3735.39 2756.14 3754.64 2758.24 3766.54C2755.04 3767.74 2751.64 3768.34 2748.04 3768.34C2744.44 3768.34 2741.29 3767.19 2738.59 3764.89C2735.99 3762.59 2734.69 3759.54 2734.69 3755.74C2734.69 3751.94 2735.19 3745.34 2736.19 3735.94C2737.19 3726.44 2737.69 3718.84 2737.69 3713.14C2737.69 3695.74 2736.44 3680.24 2733.94 3666.64ZM2845.66 3673.99C2845.66 3681.49 2844.91 3691.39 2843.41 3703.69C2842.01 3715.99 2841.31 3725.49 2841.31 3732.19C2841.31 3738.89 2843.11 3744.49 2846.71 3748.99C2850.31 3753.39 2855.66 3755.59 2862.76 3755.59C2865.66 3755.59 2869.16 3754.89 2873.26 3753.49C2877.36 3752.09 2880.61 3750.29 2883.01 3748.09C2884.31 3736.99 2884.96 3722.74 2884.96 3705.34C2884.96 3687.84 2883.71 3673.64 2881.21 3662.74C2884.41 3661.54 2887.81 3660.94 2891.41 3660.94C2895.01 3660.94 2898.11 3662.09 2900.71 3664.39C2903.41 3666.69 2904.76 3669.69 2904.76 3673.39C2904.76 3677.09 2904.31 3683.44 2903.41 3692.44C2902.61 3701.44 2902.21 3711.54 2902.21 3722.74C2902.21 3733.84 2902.71 3743.64 2903.71 3752.14C2889.11 3764.14 2874.31 3770.14 2859.31 3770.14C2847.91 3770.14 2839.01 3767.24 2832.61 3761.44C2826.31 3755.54 2823.16 3747.04 2823.16 3735.94C2823.16 3732.44 2823.46 3726.14 2824.06 3717.04C2824.76 3707.84 2825.11 3701.14 2825.11 3696.94C2825.11 3681.84 2824.11 3670.74 2822.11 3663.64C2825.31 3662.44 2828.71 3661.84 2832.31 3661.84C2835.91 3661.84 2839.01 3662.99 2841.61 3665.29C2844.31 3667.59 2845.66 3670.49 2845.66 3673.99ZM2969.42 3694.24C2969.82 3692.24 2970.02 3690.19 2970.02 3688.09C2970.02 3678.39 2965.27 3673.54 2955.77 3673.54C2951.47 3673.54 2947.82 3674.44 2944.82 3676.24C2942.02 3679.54 2940.62 3683.49 2940.62 3688.09C2940.62 3691.09 2941.92 3693.69 2944.52 3695.89C2947.12 3697.99 2950.32 3699.64 2954.12 3700.84C2958.02 3702.04 2962.22 3703.54 2966.72 3705.34C2971.22 3707.14 2975.37 3709.09 2979.17 3711.19C2983.07 3713.19 2986.32 3716.24 2988.92 3720.34C2991.52 3724.34 2992.82 3729.09 2992.82 3734.59C2992.82 3745.09 2988.77 3753.64 2980.67 3760.24C2972.67 3766.84 2963.02 3770.14 2951.72 3770.14C2942.62 3770.14 2934.87 3767.89 2928.47 3763.39C2922.17 3758.79 2919.02 3752.39 2919.02 3744.19C2919.02 3739.99 2920.27 3736.49 2922.77 3733.69C2925.37 3730.79 2928.42 3729.34 2931.92 3729.34C2935.52 3729.34 2938.17 3729.79 2939.87 3730.69C2939.07 3733.69 2938.67 3736.39 2938.67 3738.79C2938.67 3744.19 2940.17 3748.49 2943.17 3751.69C2946.27 3754.79 2950.52 3756.34 2955.92 3756.34C2961.32 3756.34 2965.67 3754.94 2968.97 3752.14C2972.27 3749.34 2973.92 3745.64 2973.92 3741.04C2973.92 3736.34 2972.07 3732.49 2968.37 3729.49C2964.77 3726.49 2960.37 3724.09 2955.17 3722.29C2949.97 3720.49 2944.77 3718.59 2939.57 3716.59C2934.37 3714.59 2929.92 3711.64 2926.22 3707.74C2922.62 3703.74 2920.82 3698.74 2920.82 3692.74C2920.82 3683.34 2924.87 3675.54 2932.97 3669.34C2941.17 3663.14 2950.42 3660.04 2960.72 3660.04C2968.32 3660.04 2974.87 3661.59 2980.37 3664.69C2985.97 3667.69 2988.77 3672.29 2988.77 3678.49C2988.77 3682.99 2987.32 3686.84 2984.42 3690.04C2981.52 3693.14 2977.87 3694.69 2973.47 3694.69C2972.27 3694.69 2970.92 3694.54 2969.42 3694.24ZM3029.95 3766.54C3026.75 3767.74 3023.35 3768.34 3019.75 3768.34C3016.15 3768.34 3013 3767.19 3010.3 3764.89C3007.7 3762.59 3006.4 3759.44 3006.4 3755.44C3006.4 3751.44 3006.9 3743.79 3007.9 3732.49C3008.9 3721.09 3009.4 3711.99 3009.4 3705.19C3009.4 3687.69 3008.35 3673.84 3006.25 3663.64C3009.45 3662.44 3012.85 3661.84 3016.45 3661.84C3020.05 3661.84 3023.15 3662.99 3025.75 3665.29C3028.45 3667.59 3029.8 3670.44 3029.8 3673.84C3029.8 3677.14 3029.65 3680.34 3029.35 3683.44C3029.15 3686.54 3028.85 3690.09 3028.45 3694.09C3028.05 3698.09 3027.75 3701.59 3027.55 3704.59C3031.55 3704.99 3038.45 3705.19 3048.25 3705.19C3058.05 3705.19 3065.6 3704.79 3070.9 3703.99C3070.9 3688.09 3069.85 3674.34 3067.75 3662.74C3070.95 3661.54 3074.35 3660.94 3077.95 3660.94C3081.55 3660.94 3084.65 3662.09 3087.25 3664.39C3089.95 3666.69 3091.3 3669.89 3091.3 3673.99C3091.3 3677.99 3090.8 3685.14 3089.8 3695.44C3088.8 3705.74 3088.3 3713.99 3088.3 3720.19C3088.3 3739.79 3089.35 3755.54 3091.45 3767.44C3088.25 3768.64 3084.85 3769.24 3081.25 3769.24C3077.65 3769.24 3074.5 3768.09 3071.8 3765.79C3069.2 3763.49 3067.9 3760.44 3067.9 3756.64C3067.9 3752.84 3068.3 3746.64 3069.1 3738.04C3069.9 3729.44 3070.4 3723.54 3070.6 3720.34C3060.8 3719.64 3046.2 3719.29 3026.8 3719.29V3723.19C3026.8 3740.89 3027.85 3755.34 3029.95 3766.54Z" fill="#9566C8"/>
<path d="M4667.29 4499.88V4456.02H4620.8C4620.8 4456.02 4606.27 4470.39 4585.93 4475.68C4565.59 4480.98 4540.42 4489.02 4536.07 4492.05C4531.71 4495.07 4527.68 4501.45 4543.44 4501.45C4559.19 4501.45 4667.29 4499.88 4667.29 4499.88Z" fill="#DB1FBB"/>
<path d="M4319.31 4499.88V4456.02H4272.82C4272.82 4456.02 4258.29 4470.39 4237.95 4475.68C4217.61 4480.98 4192.44 4489.02 4188.09 4492.05C4183.73 4495.07 4179.7 4501.45 4195.46 4501.45C4211.21 4501.45 4319.31 4499.88 4319.31 4499.88Z" fill="#DB1FBB"/>
<path d="M4652.43 4410.6C4654.75 4416.87 4652.43 4435.66 4652.43 4452.89H4626.01V4410.6H4652.43Z" fill="#47FF00" stroke="#47FF00"/>
<path d="M4652.43 4410.6C4654.75 4416.87 4652.43 4435.66 4652.43 4452.89H4626.01V4410.6H4652.43Z" fill="#47FF00"/>
<path d="M4306.49 4412.17C4308.81 4418.43 4306.49 4437.23 4306.49 4454.46H4280.07V4412.17H4306.49Z" fill="#47FF00"/>
<path d="M4634.86 3087.09V2991.55L4649.6 2621.91L4515.42 2366.61C4467.63 2369.66 4424.01 2369.74 4393.04 2374.44C4362.08 2379.14 4335.54 2405.76 4335.54 2405.76C4335.54 2405.76 4306.05 2432.39 4294.25 2452.75C4282.45 2473.11 4270.66 2515.4 4270.66 2515.4L4294.25 3109.02C4294.25 3109.02 4634.86 3099.62 4634.86 3087.09Z" fill="#F2B9E4"/>
<path d="M4664.35 4432.53C4664.35 4432.53 4664.35 4227.35 4668.77 4147.47C4671.01 4107.07 4671.95 3958.61 4664.35 3779.39C4656.91 3604.24 4649.6 3091.79 4649.6 3091.79C4649.6 3091.79 4451.34 3084.61 4388.62 3102.76C4279.22 3134.41 4278.03 3119.99 4278.03 3119.99C4278.03 3119.99 4273.61 3235.89 4266.23 3307.94C4258.86 3379.99 4223.47 3708.91 4226.42 3757.46C4229.37 3806.02 4250.01 4019.03 4250.01 4058.19C4250.01 4097.35 4258.86 4192.11 4258.86 4236.74V4432.53H4317.84C4317.84 4432.53 4335.53 4138.07 4354.7 4058.19C4373.87 3978.31 4357.65 3788.79 4378.29 3746.5C4398.94 3704.21 4426.95 3412.88 4426.95 3412.88C4440.22 3400.35 4444.65 3394.09 4453.49 3412.88C4462.34 3431.68 4457.92 3447.34 4468.24 3530.35C4478.56 3613.36 4503.63 3737.1 4527.22 3818.55C4550.81 3899.99 4590.62 4048.79 4595.04 4138.07C4599.47 4227.35 4603.89 4432.53 4603.89 4432.53H4634.86H4664.35Z" fill="#31006D"/>
<path d="M4024.85 3429.94L4602.04 3124.78C4602.04 3124.78 4590.44 3032.54 4461.97 2756.12C4333.5 2479.71 4271.7 2414 4271.7 2414L3694.51 2719.16C3694.51 2719.16 3706.12 2811.4 3834.58 3087.82C3963.05 3364.23 4024.85 3429.94 4024.85 3429.94Z" fill="url(#paint14_linear)"/>
<path d="M4321.27 2453.38L4284.56 2374.41L3657.18 2706.1L3693.88 2785.08L4321.27 2453.38Z" fill="#80FC06"/>
<path d="M4639.37 3137.84L4602.67 3058.86L3975.28 3390.56L4011.99 3469.54L4639.37 3137.84Z" fill="#80FC06"/>
<ellipse rx="185.181" ry="188.026" transform="matrix(-0.849631 0.527377 0.481979 0.876183 4134.76 2945.72)" fill="#79FF00"/>
<path d="M4226.37 2836.33C4280.58 2802.68 4358.42 2838.42 4358.42 2838.42L4346.59 2875.64C4346.59 2875.64 4288.78 2853.04 4246.93 2873.7C4205.08 2894.36 4184.17 2981.78 4111.52 3058.78C4038.86 3135.78 3902.69 3055.47 3902.69 3055.47L3915.9 3012.24C3915.9 3012.24 4036.1 3072.11 4087.37 3006.67C4138.63 2941.22 4172.16 2869.98 4226.37 2836.33Z" fill="white"/>
<path d="M4227.9 3170.22C4227.9 3170.22 4276.56 3204.68 4326.69 3204.68C4368.68 3204.68 4430.43 3145.02 4430.43 3145.02C4430.43 3145.02 4406.37 3086.84 4399 3089.97C4391.62 3093.11 4351.76 3118.54 4338.48 3123.24C4325.21 3127.93 4276.56 3123.24 4276.56 3123.24C4276.56 3123.24 4266.23 3135.77 4276.56 3142.03C4286.88 3148.3 4300.15 3149.86 4314.89 3159.26C4326.45 3170.65 4266.63 3164.01 4235.27 3159.26C4214.63 3165.53 4227.9 3170.22 4227.9 3170.22Z" fill="#FF7A49"/>
<path d="M4621.59 2421.43C4597.99 2394.8 4559.66 2376 4528.69 2366.61C4497.73 2357.21 4572.93 2565.52 4572.93 2565.52L4597.99 2668.9C4597.99 2668.9 4621.59 2776.97 4621.59 2819.26C4621.59 2861.55 4561.13 2950.83 4550.81 2968.06C4540.49 2985.29 4404.84 3071.43 4395.99 3085.53C4387.14 3099.62 4406.31 3134.08 4421.06 3148.18C4435.8 3162.28 4537.54 3071.43 4550.81 3060.47C4564.08 3049.5 4639.28 2993.12 4652.55 2975.89C4665.82 2958.66 4704.16 2906.97 4715.95 2853.72C4727.75 2800.47 4733.65 2709.62 4727.75 2668.9C4721.85 2628.17 4711.53 2598.42 4692.36 2545.16C4673.19 2491.91 4645.18 2448.05 4621.59 2421.43Z" fill="#F2B9E4"/>
<path d="M4506.58 2246V2235.04C4506.58 2235.04 4378.3 2078.41 4372.4 2075.28C4366.5 2072.15 4363.55 2073.71 4360.6 2072.15C4357.66 2070.58 4342.91 2054.92 4341.44 2042.39C4339.96 2029.86 4337.01 1995.4 4341.44 1971.9C4345.86 1948.41 4360.6 1917.08 4376.82 1917.08C4393.04 1917.08 4400.42 1920.22 4400.42 1920.22C4400.42 1920.22 4416.63 1924.91 4425.48 1929.61C4434.33 1934.31 4441.7 1948.41 4450.55 1956.24C4459.4 1964.07 4471.19 1964.07 4471.19 1964.07L4496.26 1959.37C4518.37 1959.37 4521.32 1959.37 4539.02 1968.77C4556.71 1978.17 4586.2 2006.36 4595.05 2018.89C4603.89 2031.42 4621.59 2079.98 4626.01 2097.21C4630.43 2114.43 4634.86 2150.46 4603.89 2177.09C4572.93 2203.71 4552.29 2258.53 4552.29 2258.53C4552.29 2258.53 4540.49 2275.76 4531.64 2280.46C4522.8 2285.16 4509.53 2280.46 4506.58 2280.46C4503.63 2280.46 4506.58 2246 4506.58 2246Z" fill="#330455"/>
<path d="M4518.37 2366.61C4522.8 2352.51 4511 2292.99 4512.47 2283.59C4513.95 2274.2 4524.27 2205.28 4524.27 2205.28L4425.48 2230.34L4397.46 2321.18C4397.46 2321.18 4400.41 2376 4400.41 2386.97V2410.46C4400.41 2410.46 4400.41 2421.43 4421.06 2424.56C4441.7 2427.69 4446.12 2426.12 4456.44 2424.56C4466.76 2422.99 4487.41 2412.03 4491.83 2407.33C4496.25 2402.63 4513.95 2380.7 4518.37 2366.61Z" fill="#FF7A49"/>
<path d="M4405.31 2051.78C4417.58 2048.65 4460.87 2042.39 4480.13 2056.48C4499.4 2070.58 4497.73 2081.54 4500.68 2089.37C4503.63 2097.21 4502.41 2122.27 4502.41 2122.27C4502.41 2122.27 4499.2 2199.01 4506.58 2199.01C4513.95 2199.01 4515.8 2193.67 4521.32 2189.62C4527.39 2185.16 4536.07 2177.09 4536.07 2177.09C4536.07 2177.09 4553.76 2162.99 4551.82 2199.01C4550.47 2223.96 4515.42 2241.3 4502.41 2231.91C4497.7 2254.54 4494.78 2269.5 4485.93 2285.16C4477.09 2300.82 4450.54 2319.62 4422.53 2321.18C4394.51 2322.75 4362.08 2314.92 4359.13 2311.79C4356.18 2308.65 4348.81 2300.82 4348.81 2300.82L4344.38 2289.86C4338.44 2266.36 4325.7 2207.79 4339.96 2148.89C4357.02 2078.41 4393.04 2054.92 4405.31 2051.78Z" fill="#FF7A49"/>
<path d="M4573.13 1887.36L4587.51 1761.05L4652.84 1794.36L4573.13 1887.36Z" fill="#FF625D"/>
<ellipse rx="294.008" ry="312.312" transform="matrix(-1 0 0 1 4743.01 1498.7)" fill="#FF625D"/>
<path d="M4632.98 1485.48C4645.64 1544.81 4739.4 1631.51 4742.74 1630.56V1456.75C4681.49 1374.46 4620.32 1426.15 4632.98 1485.48Z" fill="white" stroke="white"/>
<path d="M4858.71 1483.94C4851.2 1539.58 4745.94 1631.51 4742.74 1630.56L4710.76 1601.61L4717.36 1444.35L4742.74 1456.75C4801.39 1374.46 4866.21 1428.3 4858.71 1483.94Z" fill="white" stroke="white"/>
<path d="M573.971 4024.55C517.04 4210.42 219.797 4552.11 78.2913 4699.73C78.2913 4699.73 89.4691 4688 5.01378 4797.66C-79.4415 4907.33 1064.23 4885.83 1178.86 4797.66C1293.5 4709.5 1392 4561.98 1435.69 4535.91C1479.37 4509.84 1477.23 4533.06 1583.08 4489.76C1688.93 4446.46 2355.53 3797.14 2355.53 3797.14L2376.32 3775.13L2394.11 3674.02L2247.91 3552.65L2349.54 3494.87C2349.54 3494.87 2394.11 3454.54 2394.11 3395.88C2394.11 3337.22 2219.9 3280.33 2219.9 3280.33C2219.9 3280.33 2358.53 3228.36 2376.32 3166.36C2394.11 3104.35 2375.79 3026.5 2319.24 3003.6C2262.7 2980.7 2173.39 2990.39 2173.39 2990.39L1987.56 3132.89L1472.85 3438.86L1435.69 3424.42L1830.26 3104.35C1830.26 3104.35 2374.38 2785.44 2394.11 2762.55C2413.84 2739.65 2453.41 2665.49 2417.48 2594.15C2381.54 2522.81 2275.2 2561.16 2275.2 2561.16L1655.87 2909.89L1053.8 3358.01C1055.21 3333.52 1079.83 3215.71 1167.06 2940.36C1254.29 2665.01 1189.08 2530.11 1136.59 2511.26C1084.1 2492.42 1043.76 2503.51 1035.83 2522.89C1027.9 2542.27 995.317 2683.18 995.317 2683.18C955.155 2834.85 697.803 3274.87 623.469 3494.87C549.135 3714.88 645.135 3792.21 573.971 4024.55Z" fill="url(#paint15_linear)"/>
<path d="M1053.99 3708.82L1302.68 1950.77C1313.83 1871.92 1385.98 1817.53 1464.83 1828.53L2247.15 1937.66C2327.98 1948.94 2384.89 2024.47 2373.45 2105.29L2120.26 3895.23C2108.78 3976.38 2032.91 4031.15 1952.23 4016.53L1174.41 3875.51C1096.35 3861.36 1042.88 3787.35 1053.99 3708.82Z" fill="#424255"/>
<path d="M1119.63 3600.81L1341.84 2029.97C1352.99 1951.11 1425.13 1896.73 1503.99 1907.73L2187.94 2003.13C2268.76 2014.41 2325.67 2089.94 2314.23 2170.76L2088.08 3769.49C2076.6 3850.64 2000.74 3905.41 1920.06 3890.78L1240.05 3767.5C1161.99 3753.35 1108.52 3679.34 1119.63 3600.81Z" fill="#0C0C0C"/>
<path d="M1398.8 2370.39L1643.37 2406.15C1643.37 2406.15 1658.96 2373.82 1676.3 2255.21C1693.64 2136.6 1687.96 2101.16 1687.96 2101.16L1443.38 2065.4C1443.38 2065.4 1427.8 2097.74 1410.46 2216.34C1393.12 2334.95 1398.8 2370.39 1398.8 2370.39Z" fill="url(#paint16_linear)"/>
<path d="M1695.3 2125.31L1700.25 2091.42L1434.4 2052.55L1429.45 2086.44L1695.3 2125.31Z" fill="#FF5C00"/>
<path d="M1652.36 2419L1657.31 2385.11L1391.46 2346.25L1386.51 2380.13L1652.36 2419Z" fill="#FF5C00"/>
<ellipse rx="69.8549" ry="74.2036" transform="matrix(-0.989481 -0.144663 -0.144663 0.989481 1543.38 2235.78)" fill="#FF6B00"/>
<path d="M1595.64 2225.59C1619.45 2229.07 1634.42 2259.79 1634.42 2259.79L1622.39 2268.17C1622.39 2268.17 1610.37 2246.56 1593.2 2242.25C1576.03 2237.93 1549.82 2259.36 1510.61 2264.45C1471.39 2269.55 1449.27 2210.38 1449.27 2210.38L1463.09 2200.51C1463.09 2200.51 1485.13 2249.37 1515.35 2242.38C1545.56 2235.38 1571.82 2222.11 1595.64 2225.59Z" fill="white"/>
<path d="M1523.2 2544.28L1528.41 2511.8L1446.86 2498.71L1441.65 2531.2L1523.2 2544.28Z" fill="#E52C87"/>
<path d="M1529.58 2667.48L1513.01 2542.65L1451.85 2532.83L1397.06 2646.22L1529.58 2667.48Z" fill="white"/>
<path d="M1495.58 2911.94L1534.67 2668.3L1391.96 2645.41L1352 2894.46C1350.61 2903.12 1359.88 2910.54 1364.69 2913.16L1471.72 2930.33C1488.03 2932.95 1494.43 2919.16 1495.58 2911.94Z" fill="#E52C87"/>
<path d="M2139.82 3166.63C2086.1 3048.97 2155.4 2995.69 2173.65 2985.2C2191.89 2974.71 2332.18 2945.22 2373.22 3067.29C2414.26 3189.36 2320.38 3230.4 2320.38 3230.4C2320.38 3230.4 2193.55 3284.3 2139.82 3166.63Z" fill="#FFAEAD"/>
<path d="M2091.05 3465.73C2037.32 3348.07 2148.1 3299.1 2170.65 3291.52C2193.2 3283.95 2342.57 3230.85 2383.61 3352.92C2424.66 3474.99 2308.77 3522.38 2308.77 3522.38C2308.77 3522.38 2144.77 3583.4 2091.05 3465.73Z" fill="#FFAEAD"/>
<path d="M2264.64 3088.68C2251.95 3058.38 2203.51 3056.62 2201.22 3045.17C2198.93 3033.72 2256.01 3033.19 2277.32 3039.18C2298.63 3045.17 2306.56 3050.9 2313.61 3062.61C2320.65 3074.32 2324.53 3088.68 2320.65 3109.99C2316.78 3131.3 2299.51 3160.9 2285.95 3168.47C2272.39 3176.05 2277.32 3118.97 2264.64 3088.68Z" fill="white"/>
<path d="M2086.73 3697.02C2033 3579.35 2104.27 3565.76 2126.89 3561.81C2149.51 3557.86 2182.91 3553.53 2262.78 3546.76C2302.88 3549.03 2341.43 3555.84 2368.11 3590.09C2394.79 3624.35 2409.51 3759.55 2368.11 3776.99C2326.72 3794.42 2140.45 3814.68 2086.73 3697.02Z" fill="#FFAEAD"/>
<path d="M2198.23 3399.75C2185.55 3371.92 2144.5 3371.75 2151.2 3361.71C2157.89 3351.67 2216.55 3334.05 2231.35 3335.64C2246.14 3337.22 2265.69 3345.5 2271.51 3361.71C2277.32 3377.91 2278.91 3381.61 2278.91 3407.15C2278.91 3432.69 2220.6 3470.39 2208.09 3475.67C2195.59 3480.96 2210.91 3427.59 2198.23 3399.75Z" fill="white"/>
<path d="M2150.85 3597.92C2134.29 3565.16 2084.97 3573.61 2100.47 3568.68C2115.97 3563.75 2148.73 3554.94 2169.87 3557.41C2191.01 3559.87 2241.74 3575.37 2240.15 3600.03C2238.57 3624.7 2238.39 3617.83 2233.81 3627.87C2229.23 3637.91 2173.39 3659.75 2164.76 3658.87C2156.13 3657.99 2167.4 3630.68 2150.85 3597.92Z" fill="white"/>
<path d="M1423.44 3062.12L1426.97 3042.5L1370.47 3032.34L1366.95 3051.96L1423.44 3062.12Z" fill="#62F900"/>
<path d="M1428.17 3137.22L1416.38 3060.85L1374.01 3053.23L1336.36 3120.71L1428.17 3137.22Z" fill="white"/>
<path d="M1405.25 3284.97L1431.7 3137.85L1332.83 3120.08L1305.79 3270.47C1304.85 3275.7 1311.29 3280.46 1314.62 3282.18L1388.77 3295.51C1400.07 3297.54 1404.47 3289.33 1405.25 3284.97Z" fill="#62F900"/>
<rect x="1738.31" y="2130.91" width="518.233" height="32.1002" transform="rotate(8.10935 1738.31 2130.91)" fill="#AAAAAA" fill-opacity="0.49"/>
<rect x="1655.83" y="2618.9" width="518.233" height="32.1002" transform="rotate(8.10935 1655.83 2618.9)" fill="#AAAAAA" fill-opacity="0.49"/>
<rect x="1576.1" y="3079.4" width="518.233" height="32.1002" transform="rotate(8.10935 1576.1 3079.4)" fill="#AAAAAA" fill-opacity="0.49"/>
<rect x="1720.95" y="2214.76" width="518.233" height="32.1002" transform="rotate(8.10935 1720.95 2214.76)" fill="#AAAAAA" fill-opacity="0.49"/>
<rect x="1712.7" y="2301.36" width="237.78" height="32.1002" transform="rotate(8.10935 1712.7 2301.36)" fill="#AAAAAA" fill-opacity="0.49"/>
<rect x="1627.47" y="2793.47" width="237.78" height="32.1002" transform="rotate(8.10935 1627.47 2793.47)" fill="#AAAAAA" fill-opacity="0.49"/>
<rect x="1547.74" y="3253.97" width="237.78" height="32.1002" transform="rotate(8.10935 1547.74 3253.97)" fill="#AAAAAA" fill-opacity="0.49"/>
<rect x="1638.47" y="2702.75" width="518.233" height="32.1002" transform="rotate(8.10935 1638.47 2702.75)" fill="#AAAAAA" fill-opacity="0.49"/>
<rect x="1558.74" y="3163.25" width="518.233" height="32.1002" transform="rotate(8.10935 1558.74 3163.25)" fill="#AAAAAA" fill-opacity="0.49"/>
<rect x="1635.43" y="3604.5" width="325.332" height="145.894" rx="37" transform="rotate(9.80802 1635.43 3604.5)" fill="#595959" fill-opacity="0.62"/>
<defs>
<linearGradient id="paint0_linear" x1="2965.25" y1="0" x2="2965.25" y2="4341.34" gradientUnits="userSpaceOnUse">
<stop stop-color="#7818EE"/>
<stop offset="1" stop-color="#9E4BF5"/>
</linearGradient>
<linearGradient id="paint1_linear" x1="3737" y1="466.566" x2="3737" y2="801.91" gradientUnits="userSpaceOnUse">
<stop stop-color="#F66552"/>
<stop offset="1" stop-color="#BB370D"/>
</linearGradient>
<linearGradient id="paint2_linear" x1="3737" y1="1811.65" x2="3737" y2="2146.99" gradientUnits="userSpaceOnUse">
<stop stop-color="#52D8F6"/>
<stop offset="1" stop-color="#FFE600"/>
</linearGradient>
<linearGradient id="paint3_linear" x1="3422.67" y1="1811.65" x2="3422.67" y2="2146.99" gradientUnits="userSpaceOnUse">
<stop stop-color="#52D8F6"/>
<stop offset="1" stop-color="#FFE600"/>
</linearGradient>
<linearGradient id="paint4_linear" x1="3108.34" y1="1811.65" x2="3108.34" y2="2146.99" gradientUnits="userSpaceOnUse">
<stop stop-color="#52D8F6"/>
<stop offset="1" stop-color="#FFE600"/>
</linearGradient>
<linearGradient id="paint5_linear" x1="2794.01" y1="1811.65" x2="2794.01" y2="2146.99" gradientUnits="userSpaceOnUse">
<stop stop-color="#52D8F6"/>
<stop offset="1" stop-color="#FFE600"/>
</linearGradient>
<linearGradient id="paint6_linear" x1="2479.67" y1="1811.65" x2="2479.67" y2="2146.99" gradientUnits="userSpaceOnUse">
<stop stop-color="#52D8F6"/>
<stop offset="1" stop-color="#FFE600"/>
</linearGradient>
<linearGradient id="paint7_linear" x1="2165.34" y1="1811.65" x2="2165.34" y2="2146.99" gradientUnits="userSpaceOnUse">
<stop stop-color="#52D8F6"/>
<stop offset="1" stop-color="#FFE600"/>
</linearGradient>
<linearGradient id="paint8_linear" x1="3422.67" y1="468.119" x2="3422.67" y2="803.463" gradientUnits="userSpaceOnUse">
<stop stop-color="#F66552"/>
<stop offset="1" stop-color="#BB370D"/>
</linearGradient>
<linearGradient id="paint9_linear" x1="3108.34" y1="469.673" x2="3108.34" y2="805.018" gradientUnits="userSpaceOnUse">
<stop stop-color="#F66552"/>
<stop offset="1" stop-color="#BB370D"/>
</linearGradient>
<linearGradient id="paint10_linear" x1="2794" y1="471.226" x2="2794" y2="806.571" gradientUnits="userSpaceOnUse">
<stop stop-color="#F66552"/>
<stop offset="1" stop-color="#BB370D"/>
</linearGradient>
<linearGradient id="paint11_linear" x1="2479.67" y1="472.781" x2="2479.67" y2="808.126" gradientUnits="userSpaceOnUse">
<stop stop-color="#F66552"/>
<stop offset="1" stop-color="#BB370D"/>
</linearGradient>
<linearGradient id="paint12_linear" x1="2165.34" y1="474.334" x2="2165.34" y2="809.679" gradientUnits="userSpaceOnUse">
<stop stop-color="#F66552"/>
<stop offset="1" stop-color="#BB370D"/>
</linearGradient>
<linearGradient id="paint13_linear" x1="576.922" y1="0" x2="576.922" y2="326.061" gradientUnits="userSpaceOnUse">
<stop stop-color="#612A9C"/>
<stop offset="1" stop-color="#5A00BB"/>
</linearGradient>
<linearGradient id="paint14_linear" x1="3983.1" y1="2566.58" x2="4348.96" y2="3258.58" gradientUnits="userSpaceOnUse">
<stop stop-color="#F66552"/>
<stop offset="1" stop-color="#BB370D"/>
</linearGradient>
<linearGradient id="paint15_linear" x1="2591.21" y1="2587.54" x2="149.803" y2="4926.78" gradientUnits="userSpaceOnUse">
<stop offset="0.00142994" stop-color="#FF9391"/>
<stop offset="1" stop-color="#FF7A49"/>
</linearGradient>
<linearGradient id="paint16_linear" x1="1565.67" y1="2083.28" x2="1521.08" y2="2388.27" gradientUnits="userSpaceOnUse">
<stop stop-color="#52D8F6"/>
<stop offset="1" stop-color="#FFE600"/>
</linearGradient>
</defs>
</svg>
